<svg xmlns="http://www.w3.org/2000/svg" width="111" height="111" viewBox="0 0 111 111">
    <defs>
        <linearGradient id="dbvnw0zz5a" x1=".122" x2=".879" y1=".116" y2=".887" gradientUnits="objectBoundingBox">
            <stop offset="0" stop-color="#ff9f67"/>
            <stop offset="1" stop-color="#f26980"/>
        </linearGradient>
        <linearGradient id="tkucrj75jb" x1=".122" x2=".879" y1=".116" y2=".887" gradientUnits="objectBoundingBox">
            <stop offset="0" stop-color="#ffcf88"/>
            <stop offset="1" stop-color="#ffa18b"/>
        </linearGradient>
    </defs>
    <g stroke="rgba(0,0,0,0)" stroke-miterlimit="10">
        <path fill="url(#dbvnw0zz5a)" d="M569 1672c36.646 0 55 18.476 55 55 0 36.523-18.354 55-55 55-36.559 0-55-18.477-55-55 0-36.524 18.441-55 55-55z" transform="translate(-48.5 -599.5) translate(-465 -1072)"/>
        <path fill="url(#tkucrj75jb)" d="M35.159 48.421H13.306C4.477 48.421 0 43.924 0 35.055V13.4C0 4.507 4.463 0 13.264 0h21.9c8.8 0 13.264 4.507 13.264 13.4v21.627c-.005 8.887-4.468 13.394-13.269 13.394zM12.271 36.5a2.457 2.457 0 0 0 2.769-2.772 2.458 2.458 0 0 0-2.773-2.772 2.457 2.457 0 0 0-2.772 2.772 2.46 2.46 0 0 0 2.776 2.772zm8.518-4.679c-1.423 0-2.145.659-2.145 1.96v.154c0 1.3.722 1.961 2.145 1.961h14.549c1.423 0 2.145-.66 2.145-1.961v-.155c0-1.3-.722-1.96-2.145-1.96zm-8.518-4.833a2.457 2.457 0 0 0 2.769-2.772 2.458 2.458 0 0 0-2.773-2.772 2.457 2.457 0 0 0-2.772 2.772 2.46 2.46 0 0 0 2.777 2.772zm8.518-4.68c-1.423 0-2.145.66-2.145 1.961v.154c0 1.3.722 1.961 2.145 1.961h14.549c1.423 0 2.145-.66 2.145-1.961v-.154c0-1.3-.722-1.961-2.145-1.961zm-8.518-4.831a2.457 2.457 0 0 0 2.768-2.777 2.458 2.458 0 0 0-2.773-2.772A2.457 2.457 0 0 0 9.494 14.7a2.46 2.46 0 0 0 2.777 2.772zm8.518-4.68c-1.423 0-2.145.66-2.145 1.961v.154c0 1.3.722 1.96 2.145 1.96h14.549c1.423 0 2.145-.659 2.145-1.96v-.154c0-1.3-.722-1.961-2.145-1.961z" transform="translate(-48.5 -599.5) rotate(14.98 -2331.796 641.232)"/>
    </g>
</svg>
