<svg xmlns="http://www.w3.org/2000/svg" width="133.009" height="111.009" viewBox="0 0 133.009 111.009">
    <path id="photo_icon" fill="#dfe6e6" d="M131.99 47.691l-11.39 42.5c-4.812 17.96-16.354 24.606-34.293 19.8L43.809 98.6C25.87 93.8 19.2 82.27 24.01 64.309l11.39-42.5C40.21 3.849 51.751-2.8 69.691 2.01l42.5 11.388C130.13 18.2 136.8 29.73 131.99 47.691zm-20.4-31.349L68.744 4.862C52.84.6 42.608 6.492 38.341 22.415L26.862 65.256C22.6 81.179 28.511 91.4 44.415 95.659l42.842 11.479c15.9 4.261 26.136-1.63 30.4-17.553l11.479-42.842c4.264-15.922-1.647-26.143-17.551-30.402zm-6.517 73.87c-1.54 5.747-5.233 7.874-10.974 6.336l-50.31-13.48c-5.741-1.538-7.876-5.226-6.336-10.974l13.479-50.305c1.54-5.747 5.233-7.874 10.974-6.336l50.306 13.479c5.74 1.538 7.876 5.226 6.336 10.974zm-64.959-16.46c-.867 3.238.335 5.315 3.569 6.182l52.069 13.951c3.234.866 5.314-.331 6.182-3.569l8.2-30.618a48.024 48.024 0 0 0-35.655-3.308v-.012a50.718 50.718 0 0 1-29.653-.211zm72.2-41.686L60.248 18.115c-3.234-.867-5.314.331-6.182 3.569l-8.458 31.565a47.711 47.711 0 0 0 28.018.253 51.008 51.008 0 0 1 37.306 3.232l4.953-18.486c.868-3.238-.335-5.315-3.569-6.182zm-38.589 6c-1.375 5.131-4.673 7.03-9.8 5.657-5.125-1.373-7.032-4.667-5.657-9.8 1.375-5.131 4.673-7.03 9.8-5.657 5.125 1.373 7.032 4.666 5.657 9.8zm-6.433-6.9c-3.2-.858-5.264.328-6.124 3.535-.859 3.207.332 5.265 3.536 6.124 3.2.858 5.264-.328 6.124-3.535.861-3.203-.328-5.261-3.534-6.12zm-35.62-17.351c-.053.029-.1.061-.158.088l-9.1 2.438C6.511 20.6.6 30.821 4.862 46.744l11.479 42.841c4.266 15.923 14.5 21.814 30.4 17.553l4.33-1.16.039.009a1.538 1.538 0 0 1 .387-.081 1.393 1.393 0 0 1 1.5 1.406 1.622 1.622 0 0 1-1.215 1.547c-.016.015-.027.03-.044.045l-4.051 1.085C29.751 114.8 18.21 108.151 13.4 90.191l-11.39-42.5C-2.8 29.73 3.87 18.2 21.809 13.4l9.016-2.416a.847.847 0 0 1 .092 0A1.459 1.459 0 0 1 32.7 12.33a1.451 1.451 0 0 1-1.028 1.485z" data-name="photo icon" transform="translate(-.495 -.495)"/>
</svg>
