<svg xmlns="http://www.w3.org/2000/svg" width="110" height="109.999" viewBox="0 0 110 109.999">
    <path id="logo_icon" fill="#f27269" d="M493.163 242.134a63.857 63.857 0 0 1-11.147-2.592 47.824 47.824 0 0 1-9.449-4.315 39.827 39.827 0 0 1-13.783-13.775 47.854 47.854 0 0 1-4.32-9.451 63.756 63.756 0 0 1-2.6-11.152 95.644 95.644 0 0 1 0-25.7 63.792 63.792 0 0 1 2.6-11.152 47.882 47.882 0 0 1 4.32-9.451 39.827 39.827 0 0 1 13.783-13.775 47.889 47.889 0 0 1 9.449-4.315 63.959 63.959 0 0 1 11.147-2.592 95.7 95.7 0 0 1 25.674 0 63.953 63.953 0 0 1 11.147 2.592 47.906 47.906 0 0 1 9.45 4.315 39.828 39.828 0 0 1 13.783 13.775 47.869 47.869 0 0 1 4.32 9.451 63.816 63.816 0 0 1 2.6 11.152 95.644 95.644 0 0 1 0 25.7 63.757 63.757 0 0 1-2.6 11.152 47.805 47.805 0 0 1-4.32 9.451 39.828 39.828 0 0 1-13.783 13.775 47.841 47.841 0 0 1-9.45 4.315 63.854 63.854 0 0 1-11.147 2.592 95.643 95.643 0 0 1-25.674 0zM471.393 188c0 7.727 1.34 14.256 3.984 19.4a13.628 13.628 0 0 1-.154 7.265 11.254 11.254 0 0 1-2.429 3.8 8.283 8.283 0 0 0-1.42 1.962 2.036 2.036 0 0 0 .068 2.013c.636.979 2.247 1.541 4.421 1.541a24.894 24.894 0 0 0 8.611-1.91 28.317 28.317 0 0 0 4.634-2.3A45.448 45.448 0 0 0 506 222.607c22.964 0 34.607-11.643 34.607-34.607S528.964 153.393 506 153.393 471.393 165.037 471.393 188zm38.315 0c0-5.329 2.646-8.034 8.034-8.034s8.034 2.705 8.034 8.034-2.646 8.033-8.034 8.033-8.034-2.704-8.034-8.033zm-23.484 0c0-5.329 2.646-8.034 8.034-8.034s8.033 2.705 8.033 8.034-2.646 8.033-8.033 8.033-8.034-2.704-8.034-8.033z" data-name="logo icon" transform="translate(-451 -133)"/>
</svg>
