<svg xmlns="http://www.w3.org/2000/svg" width="12.295" height="12.368" viewBox="0 0 12.295 12.368">
    <path id="search_icon" fill="#3e5665" d="M324.393 57.785l-.112-.114a.973.973 0 0 1 0-1.368l1.506-1.521a.951.951 0 0 1 1.355 0l.113.114a.975.975 0 0 1 0 1.368l-1.507 1.521a.951.951 0 0 1-1.354 0zm3.071-3.252c-2.345-2.345-2.345-4.724 0-7.071a4.429 4.429 0 0 1 7.071 0 5.109 5.109 0 0 1 1.76 3.538 5.1 5.1 0 0 1-1.76 3.534 4.425 4.425 0 0 1-7.071 0zm1.061-6.01A3.1 3.1 0 1 0 331 47.291a3.575 3.575 0 0 0-2.475 1.233z" data-name="search icon" transform="translate(-324 -45.701)"/>
</svg>
