<svg xmlns="http://www.w3.org/2000/svg" width="10" height="10" viewBox="0 0 10 10">
    <path id="edit_icon" fill="#3e5665" d="M.98 9.352l.277-1.463a1.32 1.32 0 0 1 .343-.538l4.623-4.623a.565.565 0 0 1 .9 0L8.48 4.082a.565.565 0 0 1 0 .9L3.857 9.608a1.321 1.321 0 0 1-.538.343l-1.463.277a1.206 1.206 0 0 1-.206.019c-.492 0-.765-.347-.67-.895zM9.157 3.4L7.8 2.05a.565.565 0 0 1 0-.9L8.255.7a1.132 1.132 0 0 1 1.805 0l.451.451a1.132 1.132 0 0 1 0 1.806l-.451.443a.565.565 0 0 1-.9 0z" data-name="edit icon" transform="translate(-.961 -.247)"/>
</svg>
