<svg xmlns="http://www.w3.org/2000/svg" width="30" height="30" viewBox="0 0 30 30">
    <g id="remove" transform="translate(-188 -442)">
        <path id="base" fill="#3e5665" d="M529 1672c9.994 0 15 5.039 15 15s-5.006 15-15 15c-9.971 0-15-5.039-15-15s5.029-15 15-15z" opacity="0.7" transform="translate(-326 -1230)"/>
        <path id="X" fill="#fff" d="M-2146.4-426.892l-2.217-2.216-2.217 2.216a1.044 1.044 0 0 1-1.477 0 1.044 1.044 0 0 1 0-1.478l2.216-2.216-2.216-2.216a1.044 1.044 0 0 1 0-1.478 1.044 1.044 0 0 1 1.477 0l2.217 2.216 2.217-2.216a1.045 1.045 0 0 1 1.478 0 1.046 1.046 0 0 1 0 1.478l-2.216 2.216 2.216 2.216a1.046 1.046 0 0 1 0 1.478 1.042 1.042 0 0 1-.739.306 1.041 1.041 0 0 1-.739-.306z" transform="translate(2351.615 887.586)"/>
    </g>
</svg>
