<svg xmlns="http://www.w3.org/2000/svg" xmlns:xlink="http://www.w3.org/1999/xlink" id="_3" width="71.824" height="71.664" viewBox="0 0 71.824 71.664">
    <defs>
        <linearGradient id="linear-gradient" x1=".5" x2=".5" y1="1" gradientUnits="objectBoundingBox">
            <stop offset="0" stop-color="#bccbd4"/>
            <stop offset="1" stop-color="#d0e3eb"/>
        </linearGradient>
        <linearGradient id="linear-gradient-3" x1=".5" x2=".5" y1="1" gradientUnits="objectBoundingBox">
            <stop offset="0" stop-color="#673d9b"/>
            <stop offset="1" stop-color="#9b3d93"/>
        </linearGradient>
        <linearGradient id="linear-gradient-4" x1=".5" x2=".5" y1="1" gradientUnits="objectBoundingBox">
            <stop offset="0" stop-color="#66c63b"/>
            <stop offset="1" stop-color="#1ace8c"/>
        </linearGradient>
        <linearGradient id="linear-gradient-5" x1=".109" x2=".891" y2="1" gradientUnits="objectBoundingBox">
            <stop offset="0" stop-color="#ffd182"/>
            <stop offset="1" stop-color="#ff8b7c"/>
        </linearGradient>
        <linearGradient id="linear-gradient-6" x1=".5" x2=".5" y1="1" gradientUnits="objectBoundingBox">
            <stop offset="0" stop-color="#41bdbf"/>
            <stop offset="1" stop-color="#449cb3"/>
        </linearGradient>
        <linearGradient id="linear-gradient-7" x1=".5" x2=".5" y1="1" gradientUnits="objectBoundingBox">
            <stop offset="0" stop-color="#f17169"/>
            <stop offset="1" stop-color="#e95585"/>
        </linearGradient>
        <linearGradient id="linear-gradient-8" x1=".5" x2=".5" y1="1" gradientUnits="objectBoundingBox">
            <stop offset="0" stop-color="#aebdc6"/>
            <stop offset="1" stop-color="#cbdee5"/>
        </linearGradient>
        <linearGradient id="linear-gradient-10" x1=".376" x2=".624" y2="1" gradientUnits="objectBoundingBox">
            <stop offset="0" stop-color="#ffbc6e"/>
            <stop offset="1" stop-color="#ff926b"/>
        </linearGradient>
        <linearGradient id="linear-gradient-11" x1=".19" x2=".81" xlink:href="#linear-gradient-5"/>
        <linearGradient id="linear-gradient-12" x1="0" x2="1" y1=".165" y2=".835" xlink:href="#linear-gradient-10"/>
        <style>
            .cls-1{fill:url(#linear-gradient)}
        </style>
    </defs>
    <path id="Rectangle_1_copy_26" d="M531.387 824.814c-1.345 1.345-2.73 1.326-4.118-.062l-12.043-12.043c-1.388-1.388-1.408-2.773-.062-4.118 1.345-1.345 2.73-1.326 4.118.063l12.043 12.046c1.388 1.384 1.407 2.769.062 4.114z" class="cls-1" transform="translate(-495.271 -784.893)"/>
    <path id="Rectangle_1_copy_24" d="M505.8 789.946c3.078 3.078 3.074 6.2 0 9.271s-6.192 3.078-9.271 0a6.506 6.506 0 0 1-2.291-4.856.72.72 0 0 1 0-.09v-.009a1.107 1.107 0 0 1 .376-.684.935.935 0 0 1 1.479-.01 1.616 1.616 0 0 1 .127.146l.013-.006 1.1 1.1c1.388 1.388 2.773 1.407 4.118.062s1.326-2.73-.062-4.118l-1.1-1.1.006-.013a1.672 1.672 0 0 1-.146-.128.95.95 0 0 1-.015-1.484.944.944 0 0 1 .849-.373 6.529 6.529 0 0 1 4.817 2.292zm0 9.271zm-5.649-9.705z" class="cls-1" transform="translate(-482.141 -771.753)"/>
    <path id="Rectangle_1_copy_27" fill="url(#linear-gradient-3)" d="M580 744.579a2.85 2.85 0 0 0-1.713 1.7.541.541 0 0 1-.614.558.541.541 0 0 1-.614-.558 2.85 2.85 0 0 0-1.713-1.7.539.539 0 0 1-.541-.611.539.539 0 0 1 .541-.612 2.849 2.849 0 0 0 1.713-1.7.541.541 0 0 1 .614-.558.541.541 0 0 1 .614.558 2.849 2.849 0 0 0 1.713 1.7.539.539 0 0 1 .541.612.539.539 0 0 1-.541.611z" transform="translate(-535.201 -741.1)"/>
    <path id="Rectangle_1_copy_27-2" fill="url(#linear-gradient-4)" d="M571.595 780.579a2.85 2.85 0 0 0-1.713 1.7.541.541 0 0 1-.614.558.541.541 0 0 1-.614-.558 2.85 2.85 0 0 0-1.713-1.7.539.539 0 0 1-.541-.612.539.539 0 0 1 .541-.612 2.85 2.85 0 0 0 1.713-1.7.541.541 0 0 1 .614-.558.541.541 0 0 1 .614.558 2.85 2.85 0 0 0 1.713 1.7.539.539 0 0 1 .541.612.539.539 0 0 1-.541.612z" transform="translate(-529.669 -764.809)"/>
    <path id="Rectangle_1_copy_27-3" fill="url(#linear-gradient-5)" d="M555.735 804.416a4.682 4.682 0 0 0-2.815 2.791.889.889 0 0 1-1.009.916.889.889 0 0 1-1.009-.916 4.682 4.682 0 0 0-2.815-2.791.885.885 0 0 1-.888-1 .885.885 0 0 1 .888-1 4.682 4.682 0 0 0 2.815-2.791.889.889 0 0 1 1.009-.916.889.889 0 0 1 1.009.916 4.682 4.682 0 0 0 2.815 2.791.885.885 0 0 1 .888 1 .885.885 0 0 1-.888 1z" transform="translate(-517.024 -779.034)"/>
    <path id="Rectangle_1_copy_27-4" fill="url(#linear-gradient-6)" d="M517.335 770.816a4.682 4.682 0 0 0-2.815 2.791.889.889 0 0 1-1.009.917.889.889 0 0 1-1.009-.917 4.682 4.682 0 0 0-2.815-2.791.885.885 0 0 1-.888-1 .885.885 0 0 1 .888-1 4.682 4.682 0 0 0 2.815-2.791.889.889 0 0 1 1.009-.916.889.889 0 0 1 1.009.916 4.682 4.682 0 0 0 2.815 2.791.885.885 0 0 1 .888 1 .885.885 0 0 1-.888 1z" transform="translate(-491.735 -756.906)"/>
    <path id="Rectangle_1_copy_28" fill="url(#linear-gradient-7)" d="M604.935 786.416a4.681 4.681 0 0 0-2.815 2.791.889.889 0 0 1-1.009.916.889.889 0 0 1-1.009-.916 4.681 4.681 0 0 0-2.815-2.791.885.885 0 0 1-.888-1 .885.885 0 0 1 .888-1 4.681 4.681 0 0 0 2.815-2.79.889.889 0 0 1 1.009-.916.889.889 0 0 1 1.009.916 4.681 4.681 0 0 0 2.815 2.79.885.885 0 0 1 .888 1 .885.885 0 0 1-.888 1z" transform="translate(-549.426 -767.18)"/>
    <path id="Rectangle_1_copy_29" fill="url(#linear-gradient-8)" d="M10.868 18.9c-.759 0-1.266-.453-1.506-1.345l-1.03-3.84-2.825 2.825a1.808 1.808 0 0 1-1.252.623A1.807 1.807 0 0 1 3 16.54l-.626-.626a1.569 1.569 0 0 1 0-2.5l2.826-2.82-3.853-1.032a1.807 1.807 0 0 1-1.166-.773A1.807 1.807 0 0 1 .1 7.394l.224-.854c.24-.894.746-1.347 1.507-1.347a2.578 2.578 0 0 1 .661.1l3.853 1.028-1.03-3.837A1.8 1.8 0 0 1 5.4 1.092 1.8 1.8 0 0 1 6.561.323l.853-.228A2.573 2.573 0 0 1 8.072 0c.759 0 1.266.453 1.506 1.345l1.031 3.836 2.825-2.825a1.807 1.807 0 0 1 1.252-.623 1.807 1.807 0 0 1 1.252.623l.626.626a1.807 1.807 0 0 1 .623 1.252 1.807 1.807 0 0 1-.623 1.252L13.744 8.3l3.849 1.031a1.807 1.807 0 0 1 1.166.773 1.807 1.807 0 0 1 .086 1.4l-.229.855c-.239.894-.746 1.347-1.506 1.347a2.578 2.578 0 0 1-.661-.1l-3.854-1.032 1.031 3.836a1.8 1.8 0 0 1-.086 1.39 1.8 1.8 0 0 1-1.162.769l-.852.228a2.575 2.575 0 0 1-.658.103zM9.082 5.991c-1.456 0-2.426.868-2.885 2.58a3.46 3.46 0 0 0 .165 2.672 3.461 3.461 0 0 0 2.231 1.478 4.939 4.939 0 0 0 1.266.183c1.456 0 2.426-.868 2.885-2.58.582-2.172-.225-3.569-2.4-4.151a4.937 4.937 0 0 0-1.262-.182z" transform="translate(38.937 21.689)"/>
    <path id="Rectangle_1_copy_30" d="M7.438 13.373a9.549 9.549 0 0 1-2.448-.354 9.038 9.038 0 0 1-2.655-1.139 5.2 5.2 0 0 1-1.66-1.721 5.194 5.194 0 0 1-.662-2.3A9.032 9.032 0 0 1 .354 4.99a7.5 7.5 0 0 1 2.067-3.74A5.1 5.1 0 0 1 5.935 0a9.551 9.551 0 0 1 2.448.354c4.2 1.126 5.761 3.827 4.635 8.029a7.5 7.5 0 0 1-2.067 3.74 5.1 5.1 0 0 1-3.513 1.25zM6.333 3.544c-1.323 0-2.205.789-2.622 2.345a2.731 2.731 0 0 0 2.178 3.774 4.484 4.484 0 0 0 1.151.167c1.323 0 2.206-.789 2.623-2.345a3.145 3.145 0 0 0-.15-2.43 3.146 3.146 0 0 0-2.029-1.344 4.486 4.486 0 0 0-1.151-.167z" class="cls-1" transform="translate(41.721 24.451)"/>
    <path id="Rectangle_1_copy_31" fill="url(#linear-gradient-10)" d="M69.4 15.687L56.549 2.7a1.068 1.068 0 0 1 .014-1.694l.318-.322A1.045 1.045 0 0 1 58.559.67l12.855 12.987a1.069 1.069 0 0 1-.015 1.694l-.318.322a1.22 1.22 0 0 1-.849.429 1.183 1.183 0 0 1-.832-.415zM.749 15.511l-.321-.324a1.077 1.077 0 0 1-.015-1.708L13.342.418a1.053 1.053 0 0 1 1.691.015l.321.324a1.077 1.077 0 0 1 .015 1.708L2.44 15.526a1.193 1.193 0 0 1-.834.418 1.23 1.23 0 0 1-.857-.433z" transform="translate(0 32.51)"/>
    <path id="Shape_2_copy_7" fill="#e2eff1" d="M504.045 941.78c-19.928 0-30.045-.8-30.045-2.39 0-1.587 10.117-2.39 30.045-2.39s30.045.8 30.045 2.39c0 1.587-10.117 2.39-30.045 2.39z" transform="translate(-468.816 -870.116)"/>
    <path id="Rectangle_1_copy_16" fill="url(#linear-gradient-11)" d="M536.634 871.192h-36.943c-3.51 0-5.291-1.776-5.291-5.287v-27.118c0-3.511 1.782-5.287 5.291-5.287h36.943c3.51 0 5.292 1.776 5.292 5.287v27.119c0 3.51-1.782 5.286-5.292 5.286z" transform="translate(-482.251 -801.953)"/>
    <path id="Rectangle_1_copy_25" fill="url(#linear-gradient-12)" d="M1.595 31.957A1.433 1.433 0 0 1 0 30.318a1.433 1.433 0 0 1 1.595-1.639h9.1a1.434 1.434 0 0 1 1.6 1.639 1.433 1.433 0 0 1-1.6 1.639zm0-5.736A1.433 1.433 0 0 1 0 24.582a1.433 1.433 0 0 1 1.595-1.639h18.114a1.433 1.433 0 0 1 1.6 1.639 1.433 1.433 0 0 1-1.6 1.639zM14.3 10.652a1.059 1.059 0 0 1-1.186-1.2V0h10.649v9.449a1.059 1.059 0 0 1-1.186 1.2z" transform="translate(17.475 31.547)"/>
</svg>
