<svg xmlns="http://www.w3.org/2000/svg" width="26.249" height="26.249" viewBox="0 0 26.249 26.249">
    <defs>
        <linearGradient id="eitka2j68a" x1=".5" x2=".5" y2="1" gradientUnits="objectBoundingBox">
            <stop offset="0" stop-color="#34bedb"/>
            <stop offset="1" stop-color="#3377a3"/>
        </linearGradient>
        <linearGradient id="yktkdqtoxb" x1=".5" x2=".5" y2="1" gradientUnits="objectBoundingBox">
            <stop offset="0" stop-color="#5ae6ff"/>
            <stop offset="1" stop-color="#2c7bae"/>
        </linearGradient>
    </defs>
    <g>
        <path fill="url(#eitka2j68a)" d="M18.054 30.164c.161 8.387 4.595 13.129 13.139 13.139 8.7.009 13.119-4.425 13.11-13.11-.009-8.685-4.443-13.129-13.139-13.139-8.7-.009-13.119 4.425-13.11 13.11z" transform="translate(-18.054 -17.054)"/>
        <path fill="url(#yktkdqtoxb)" d="M41.8 39.109h-1.861a8.511 8.511 0 0 1-4.046 3.664 19.147 19.147 0 0 1-4.7.529 17.938 17.938 0 0 1-4.538-.543 8.865 8.865 0 0 1-4.041-3.65H20.8a11.117 11.117 0 0 1-1.622-2.8h2.2a20.629 20.629 0 0 1-.823-4.728h-2.429c-.038-.46-.063-.931-.072-1.415s.015-.936.041-1.387h2.437a21.342 21.342 0 0 1 .677-4.728h-2.187a10.621 10.621 0 0 1 1.533-2.8h1.764a8.623 8.623 0 0 1 3.333-3.434 18.137 18.137 0 0 1 5.512-.759 18.17 18.17 0 0 1 5.513.771 8.672 8.672 0 0 1 3.332 3.422h1.757a10.657 10.657 0 0 1 1.547 2.8h-2.182a21.3 21.3 0 0 1 .691 4.728h2.436c.028.459.045.93.045 1.415s-.015.936-.041 1.387h-2.443a20.811 20.811 0 0 1-.72 4.728h2.236a10.621 10.621 0 0 1-1.535 2.8zM29.777 17.167a6.588 6.588 0 0 0-4.971 4.08h4.971zm0 6.882h-5.894a25.854 25.854 0 0 0-.556 4.728h6.45zm0 7.53h-6.431a25.5 25.5 0 0 0 .636 4.728h5.795zm0 7.53h-4.822a6.746 6.746 0 0 0 4.823 4.059zm2.8 4.08a6.588 6.588 0 0 0 4.971-4.08h-4.969zm0-26.014v4.072h4.949a6.627 6.627 0 0 0-4.947-4.072zm5.88 6.874h-5.88v4.728h6.448a25.788 25.788 0 0 0-.565-4.728zm-5.88 7.53v4.728h5.894a25.853 25.853 0 0 0 .556-4.728z" transform="translate(-18.054 -17.054)"/>
    </g>
</svg>
