<svg xmlns="http://www.w3.org/2000/svg" xmlns:xlink="http://www.w3.org/1999/xlink" id="_1" width="73.094" height="72.053" viewBox="0 0 73.094 72.053">
    <defs>
        <linearGradient id="linear-gradient" x1=".109" x2=".891" y2="1" gradientUnits="objectBoundingBox">
            <stop offset="0" stop-color="#ffd182"/>
            <stop offset="1" stop-color="#ff8b7c"/>
        </linearGradient>
        <linearGradient id="linear-gradient-2" x1=".5" x2=".5" y2="1" gradientUnits="objectBoundingBox">
            <stop offset="0" stop-color="#ffd182"/>
            <stop offset="1" stop-color="#ef465a"/>
        </linearGradient>
        <linearGradient id="linear-gradient-3" x1="1" x2="0" y1=".543" y2=".457" gradientUnits="objectBoundingBox">
            <stop offset="0" stop-color="#66c63b"/>
            <stop offset="1" stop-color="#1ace8c"/>
        </linearGradient>
        <linearGradient id="linear-gradient-4" x1=".5" x2=".5" y1="1" gradientUnits="objectBoundingBox">
            <stop offset="0" stop-color="#f17169"/>
            <stop offset="1" stop-color="#e95585"/>
        </linearGradient>
        <linearGradient id="linear-gradient-5" x1=".5" x2=".5" y1="1" y2="0" xlink:href="#linear-gradient-3"/>
        <linearGradient id="linear-gradient-6" x2="1" y1=".5" y2=".5" gradientUnits="objectBoundingBox">
            <stop offset="0" stop-color="#673d9b"/>
            <stop offset="1" stop-color="#9b3d93"/>
        </linearGradient>
        <linearGradient id="linear-gradient-7" x1=".5" x2=".5" y1="1" y2="0" xlink:href="#linear-gradient-6"/>
        <linearGradient id="linear-gradient-10" x1=".109" x2=".891" xlink:href="#linear-gradient"/>
        <linearGradient id="linear-gradient-11" x1=".5" x2=".5" y1="1" gradientUnits="objectBoundingBox">
            <stop offset="0" stop-color="#41bdbf"/>
            <stop offset="1" stop-color="#449cb3"/>
        </linearGradient>
        <radialGradient id="radial-gradient" cx=".5" cy=".5" r="1.2" gradientTransform="matrix(.417 0 0 1 .292 0)" gradientUnits="objectBoundingBox">
            <stop offset="0" stop-color="#d33263"/>
            <stop offset="1" stop-color="#ee6674"/>
        </radialGradient>
        <style>
            .cls-5{fill:url(#linear-gradient-4)}.cls-6{fill:url(#linear-gradient-5)}.cls-8{fill:url(#linear-gradient-7)}
        </style>
    </defs>
    <path id="Shape_2_copy_8" fill="#e2eff1" d="M529.34 309.414c-9.511 0-14.34-.574-14.34-1.707 0-1.134 4.828-1.707 14.34-1.707 9.511 0 14.34.573 14.34 1.707-.001 1.134-4.829 1.707-14.34 1.707z" transform="translate(-502.082 -237.361)"/>
    <path id="Rectangle_1_copy_3" fill="url(#linear-gradient)" d="M.148 36.113l4.283-19.6c.882-4.035 2.383-8.729 4.511-11.24a14.991 14.991 0 0 1 1.383-1.584c6.412-6.413 14.859-4.454 25.107 5.794s12.207 18.7 5.794 25.108a14.307 14.307 0 0 1-2.315 1.9c-2.578 1.887-6.729 3.292-10.41 4.1L8.9 44.866A10.321 10.321 0 0 1 7.285 45C2.306 45-.72 41.061.148 36.113z" transform="translate(7.263 16.893)"/>
    <path id="Rectangle_1_copy_4" fill="url(#linear-gradient-2)" d="M536.451 186.436c-8.482-8.482-10.1-15.473-4.8-20.78 5.307-5.307 12.3-3.686 20.78 4.8 8.482 8.482 10.1 15.473 4.8 20.78-5.307 5.303-12.298 3.682-20.78-4.8z" transform="translate(-511.04 -142.922)"/>
    <path id="Rectangle_1_copy" fill="url(#linear-gradient-3)" d="M480.251 156.263zm1.98.178l.066.025a4.5 4.5 0 0 1 1.137.663l1.632 1.275a.935.935 0 0 1 .179 1.476l-1.284 1.59a4.33 4.33 0 0 1-.949.889l-.058.038-.011.007a4.314 4.314 0 0 1-1.876.589c-2.294.248-3.592-.76-3.863-2.993-.271-2.233.752-3.491 3.045-3.739a4.382 4.382 0 0 1 1.967.173zm-1.163 6.554z" transform="translate(-477.163 -138.723)"/>
    <path id="Rectangle_1_copy_14" d="M617.916 278.638zm-.764-1.85c0-.024-.006-.047-.008-.071a4.433 4.433 0 0 1 .066-1.314l.386-2.03a.932.932 0 0 1 1.244-.822l2.028.435a4.482 4.482 0 0 1 1.241.45l.062.034.012.007a4.429 4.429 0 0 1 1.4 1.413c1.292 1.939.991 3.551-.889 4.794-1.88 1.243-3.489.892-4.781-1.047a4.411 4.411 0 0 1-.762-1.836zm6.434-1.9z" class="cls-5" transform="translate(-569.337 -215.308)"/>
    <path id="Rectangle_1_copy_13" d="M646.94 259.94zm-1.9-.624l-.059-.04a4.505 4.505 0 0 1-.961-.908l-1.3-1.62a.94.94 0 0 1 .165-1.487L644.5 254a4.381 4.381 0 0 1 1.135-.655l.065-.025h.013a4.353 4.353 0 0 1 1.974-.15c2.306.279 3.345 1.561 3.1 3.809-.25 2.248-1.543 3.248-3.848 2.969a4.405 4.405 0 0 1-1.888-.617zm2.653-6.154z" class="cls-6" transform="translate(-586.001 -202.533)"/>
    <path id="Rectangle_1_copy_12" fill="url(#linear-gradient-6)" d="M615.615 219.722a2.27 2.27 0 0 1-3.592.491l-.009-.008-.008.011q-5.345-4.354-14.978-4.362-9.719 0-15.077 4.454c-.076.065-.142.132-.227.2a2.317 2.317 0 0 1-3.639-.492 2.26 2.26 0 0 1 .481-3.6c.1-.077.2-.146.3-.209q6.527-5.189 18.157-5.2 11.342 0 17.836 4.955c.081.053.161.11.243.172a2.278 2.278 0 0 1 .513 3.588z" transform="translate(-543.179 -174.796)"/>
    <path id="Rectangle_1_copy_11" d="M637.329 137.9a2.375 2.375 0 0 0-1.428 1.415.451.451 0 0 1-.512.465.451.451 0 0 1-.512-.465 2.375 2.375 0 0 0-1.428-1.415.449.449 0 0 1-.451-.51.449.449 0 0 1 .451-.51 2.375 2.375 0 0 0 1.428-1.415.451.451 0 0 1 .512-.465.451.451 0 0 1 .512.465 2.375 2.375 0 0 0 1.428 1.415.449.449 0 0 1 .451.51.449.449 0 0 1-.451.51z" class="cls-8" transform="translate(-579.794 -124.743)"/>
    <path id="Rectangle_1_copy_10" d="M505.773 129.142zm1.161 1.619l.024.067a4.413 4.413 0 0 1 .236 1.287l.09 2.052a.923.923 0 0 1-1.016 1.075l-2.061.035a4.461 4.461 0 0 1-1.3-.157l-.067-.019h-.013a4.422 4.422 0 0 1-1.68-1.053c-1.692-1.587-1.769-3.215-.233-4.841 1.536-1.625 3.171-1.648 4.863-.06a4.405 4.405 0 0 1 1.155 1.606zm-5.791 3.282z" class="cls-8" transform="translate(-492.08 -120.112)"/>
    <path id="Rectangle_1_copy_9" d="M630.329 167.9a2.375 2.375 0 0 0-1.428 1.416.451.451 0 0 1-.512.465.451.451 0 0 1-.512-.465 2.375 2.375 0 0 0-1.428-1.416.449.449 0 0 1-.451-.51.449.449 0 0 1 .451-.51 2.375 2.375 0 0 0 1.428-1.415.451.451 0 0 1 .512-.465.451.451 0 0 1 .512.465 2.375 2.375 0 0 0 1.428 1.415.449.449 0 0 1 .451.51.449.449 0 0 1-.451.51z" class="cls-6" transform="translate(-575.184 -144.501)"/>
    <path id="Rectangle_1_copy_8" fill="url(#linear-gradient-10)" d="M616.112 114.763a3.9 3.9 0 0 0-2.346 2.326.741.741 0 0 1-.841.764.741.741 0 0 1-.841-.764 3.9 3.9 0 0 0-2.345-2.326.737.737 0 0 1-.74-.837.737.737 0 0 1 .74-.837 3.9 3.9 0 0 0 2.345-2.325.741.741 0 0 1 .841-.764.741.741 0 0 1 .841.764 3.9 3.9 0 0 0 2.346 2.325.738.738 0 0 1 .74.837.738.738 0 0 1-.74.837z" transform="translate(-563.988 -108.279)"/>
    <path id="Rectangle_1_copy_7" fill="url(#linear-gradient-11)" d="M29.375 7.43a3.9 3.9 0 0 0-2.346-2.33.738.738 0 0 1-.74-.837.737.737 0 0 1 .74-.837A3.9 3.9 0 0 0 29.375 1.1a.844.844 0 0 1 1.681 0A3.9 3.9 0 0 0 33.4 3.43a.737.737 0 0 1 .74.837.738.738 0 0 1-.74.837 3.9 3.9 0 0 0-2.344 2.326.844.844 0 0 1-1.681 0zM3.086 7.089A3.9 3.9 0 0 0 .74 4.763.738.738 0 0 1 0 3.926a.737.737 0 0 1 .74-.837A3.9 3.9 0 0 0 3.086.764.741.741 0 0 1 3.926 0a.741.741 0 0 1 .84.764 3.9 3.9 0 0 0 2.346 2.325.737.737 0 0 1 .74.837.738.738 0 0 1-.74.837 3.9 3.9 0 0 0-2.345 2.326.741.741 0 0 1-.84.764.741.741 0 0 1-.841-.764z" transform="translate(36.476 21.523)"/>
    <path id="Rectangle_1_copy_5" d="M562.485 115.386c0 5.974-2.544 9.469-7.548 10.455-1.086 4.687-4.508 7.074-10.206 7.122v-.006c-.058 0-.11.011-.171.011a2.561 2.561 0 1 1 0-5.121c.061 0 .112.009.171.012v-.012h.629c1.979 0 3.354-.621 4.119-1.849a9.723 9.723 0 0 1-5.693-2.468l.025-.026A5.76 5.76 0 0 1 542 118.8c0-3.968 2.069-5.975 6.146-5.975a6.46 6.46 0 0 1 4.5 1.408l.008-.008.055.062a4.356 4.356 0 0 1 .566.664 10.505 10.505 0 0 1 1.956 5.513c1.418-.722 2.138-2.149 2.138-4.278v-1.551c0-2.309-.841-3.8-2.492-4.469a4.2 4.2 0 0 1-.564-.176 2.561 2.561 0 1 1 1.849-4.776c.078.03.151.063.224.1 4.041 1.341 6.099 4.704 6.099 10.072zm-13.147 2.866a1.579 1.579 0 0 0-2.217-.305 1.235 1.235 0 0 0 .168 1.829 4.455 4.455 0 0 0 2.889 1.207 5.077 5.077 0 0 0-.84-2.731zm3.506-11.574z" class="cls-5" transform="translate(-519.863 -104.959)"/>
    <path id="Rectangle_1_copy_6" fill="url(#radial-gradient)" d="M557.388 151.73a16.092 16.092 0 0 0 .378-3.627c0-.613-.037-1.19-.09-1.75a3.619 3.619 0 0 0 1.8-2.085L564 146.61a8.407 8.407 0 0 1-6.612 5.12zm-7.841-6.288a4.3 4.3 0 0 0 3.083 1.429c.009.157.016.315.016.481v1.548a5.579 5.579 0 0 1-.715 2.984 9.356 9.356 0 0 1-6.209-3.02z" transform="translate(-522.314 -130.847)"/>
</svg>
