<svg xmlns="http://www.w3.org/2000/svg" xmlns:xlink="http://www.w3.org/1999/xlink" width="27.752" height="27.748" viewBox="0 0 27.752 27.748">
    <defs>
        <linearGradient id="yec2blk6fa" x2="1" y1="1" gradientUnits="objectBoundingBox">
            <stop offset="0" stop-color="#3fc8c3"/>
            <stop offset="1" stop-color="#458ead"/>
        </linearGradient>
        <linearGradient id="ubwwxqpreb" x1="0" x2="1" y1=".996" y2=".004" xlink:href="#yec2blk6fa"/>
    </defs>
    <g>
        <path fill="url(#yec2blk6fa)" d="M.726 127.932a2.174 2.174 0 0 0 .074 3.43l.134.134a2.189 2.189 0 0 0 3.492.017l3.291-3.289c1.154-1.153 2.055-3.236.891-4.4l-.134-.134c-1.164-1.163-3.247-.262-4.4.891z" transform="translate(.076 -104.626)"/>
        <path fill="url(#ubwwxqpreb)" d="M11.9 24.129c-2.687 0-5.393-1.347-8.043-4C1.274 17.537-.024 14.824 0 12.063.024 9.349 1.322 6.637 3.857 4 6.508 1.347 9.214 0 11.9 0s5.393 1.347 8.043 4 4 5.37 3.995 8.063-1.345 5.4-3.995 8.059-5.356 4.007-8.043 4.007zm.018-20.121a7.727 7.727 0 0 0-5.363 2.674c-3.446 3.585-3.446 7.307 0 10.765a7.727 7.727 0 0 0 5.364 2.674 7.727 7.727 0 0 0 5.364-2.674c3.559-3.572 3.559-7.194 0-10.765a7.726 7.726 0 0 0-5.364-2.674z" transform="translate(3.814)"/>
    </g>
</svg>
