<svg id="play" xmlns="http://www.w3.org/2000/svg" width="93.978" height="93.978" viewBox="0 0 93.978 93.978">
  <defs>
    <style>
      .cls-1 {
        fill: #3e5665;
        opacity: 0.7;
      }

      .cls-2 {
        fill: #fafafa;
      }
    </style>
  </defs>
  <path id="base" class="cls-1" d="M560.989,1672h0c31.308,0,46.989,15.785,46.989,46.989h0c0,31.2-15.681,46.989-46.989,46.989h0c-31.234,0-46.989-15.785-46.989-46.989h0C514,1687.785,529.755,1672,560.989,1672Z" transform="translate(-514 -1672)"/>
  <path id="icon" class="cls-2" d="M47.635,35.027,29.447,48.111C25.75,50.727,22,47.685,22,45.067V16c0-2.618,3.75-5.66,7.447-3.045L47.635,26.044C51.338,28.663,51.338,32.407,47.635,35.027Z" transform="translate(14.435 16.454)"/>
</svg>
