<svg xmlns="http://www.w3.org/2000/svg" xmlns:xlink="http://www.w3.org/1999/xlink" width="283" height="202" viewBox="0 0 283 202">
  <defs>
    <style>
      .cls-1 {
        fill: #fff;
      }

      .cls-2 {
        clip-path: url(#clip-path);
      }

      .cls-3 {
        fill: #ededed;
      }

      .cls-4 {
        opacity: 0.65;
      }

      .cls-5 {
        fill: #f27269;
        opacity: 0.09;
      }

      .cls-6 {
        opacity: 0.635;
      }
    </style>
    <clipPath id="clip-path">
      <rect id="Rectangle_48" data-name="Rectangle 48" class="cls-1" width="283" height="202" transform="translate(-0.054 -0.203)"/>
    </clipPath>
  </defs>
  <g id="Group_467" data-name="Group 467" transform="translate(-663.946 -2308.797)">
    <g id="Mask_Group_9" data-name="Mask Group 9" class="cls-2" transform="translate(664 2309)">
      <g id="Group_427" data-name="Group 427" transform="translate(14.374 14.96)">
        <g id="Group_426" data-name="Group 426" transform="translate(0 0)">
          <g id="Group_425" data-name="Group 425">
            <path id="Path_784" data-name="Path 784" class="cls-1" d="M165.018,58.282a1.285,1.285,0,0,1,1.568-.375c10.21,2.784,20.42,5.574,30.66,8.242,2.567.669,5.252.875,7.867,1.374a9.3,9.3,0,0,1,1.948.855c-.282.091-.579.291-.843.254-2.273-.318-4.568-.558-6.8-1.054-4.317-.957-8.6-2.066-12.9-3.109-.838-.2-1.681-.392-2.623-.611a42.547,42.547,0,0,0-.751,4.3c-.225,3.106.028,6.094,2.971,8.059a1.1,1.1,0,0,1,.223.206c1.047,1.229,1.946,2.421,1.25,4.256a32.159,32.159,0,0,0-1.022,4.444c.353-.022.55-.029.746-.047,1.872-.169,2.557.6,2.2,2.456a2.236,2.236,0,0,0-.07,1c.459,1.517.976,3.017,1.47,4.524.2.6.56.743,1.174.571a9.748,9.748,0,0,1,5.475-.287c.567.166.8-.147.887-.656a.928.928,0,0,1,1.2-.877q12.1,1.564,24.214,3.089c1.862.236,3.726.468,5.642.709.085-.557.17-.985.213-1.417.72-7.393,1.424-14.787,2.165-22.177.07-.7-.162-.9-.8-.935-2.462-.132-4.929-.215-7.381-.454-4.936-.481-9.866-1.037-14.793-1.606a9.571,9.571,0,0,1-1.875-.617c-.171-.716.261-.568.69-.509,3.175.435,6.341.988,9.531,1.254,6.327.529,12.665.914,19,1.325,4.515.293,9.032.6,13.553.775,4.285.165,8.576.205,12.865.226A20.024,20.024,0,0,1,271.7,73.2a4.856,4.856,0,0,0,2.568.358,13.033,13.033,0,0,1,7.161,1.37,9.092,9.092,0,0,0,5.795.836c1.19-.231,2.524-.354,3.524.69.933.974.789,1.587-.421,2.151-1.341.626-2.689,1.244-3.986,1.954a3.44,3.44,0,0,0-1.17,1.175c-.522.83-.933,1.731-1.458,2.729,1.117-.483,2.084-.918,3.065-1.321,1.161-.477,1.593-.18,1.632,1.088.005.166-.015.332-.023.494a1.235,1.235,0,0,0,1.876-.281,2.977,2.977,0,0,1,2.065-1.1,3.879,3.879,0,0,0,1.78-.967c1.069-.927,1.988-2.035,3.1-2.9a3.94,3.94,0,0,1,2.055-.641c.8-.059,1.09.5.7,1.211-.239.435-.665.765-.923,1.193a14.109,14.109,0,0,0-.695,1.595,6.071,6.071,0,0,0,1.039-.125,1.289,1.289,0,0,1,1.778.686,1.309,1.309,0,0,0,1.489.723c.771-.063,1.556.023,2.323-.059a4.005,4.005,0,0,0,1.385-.462c.861-.449,1.676-.986,2.532-1.448a2.716,2.716,0,0,1,2.705.069,2.38,2.38,0,0,0,1.609.273,2.787,2.787,0,0,1,3.075,1.6c.178.7.533,1.518.3,2.081-.141.348-1.218.382-1.884.434a20.1,20.1,0,0,1-2.43-.021,1.732,1.732,0,0,0-1.817.794c-.116.2-.427.3-.666.416-1.447.681-2.915,1.322-4.338,2.049-.325.166-.526.6-.749.938-1.069,1.616-2.125,3.24-3.136,4.96a15.886,15.886,0,0,1,1.358-1.33,5.172,5.172,0,0,1,1.152-.524c.154.412.467.84.428,1.232a18.823,18.823,0,0,1-.548,1.936,29.736,29.736,0,0,0-.621,3.435c-.151,1.576-.186,3.164-.227,4.749a1.9,1.9,0,0,0,.256,1.133,3.694,3.694,0,0,1,.573,3.091,2.756,2.756,0,0,0,.525,2.176,18.289,18.289,0,0,1,1.356,2.481c.445.952,1.151,1.059,1.808.214,1.149-1.477,1.314-3.271,1.709-5.016a6.756,6.756,0,0,0-1.137-5.533,5.754,5.754,0,0,1-.762-4.945,8.321,8.321,0,0,0,.336-1.687c.147-2.052,1.057-3.455,3.3-3.849a2.771,2.771,0,0,1,.9-3.217c.3-.278.289-.923.364-1.408.259-1.687.667-1.862,2.313-1.395,1.836.521,3.377,1.829,5.39,1.911.332.013.853.782.9,1.24a2.8,2.8,0,0,0,.773,1.9,1.872,1.872,0,0,1,.373,2.151c-.541,1.489-1.052,2.988-1.56,4.488a2.439,2.439,0,0,0-.048.607l.239.148c.4-.369.811-.723,1.188-1.112.4-.412.752-.865,1.142-1.286a.787.787,0,0,1,1.361.088,7.824,7.824,0,0,1,.647,1.139c.668,1.313,1.358,2.618,1.979,3.953a2.968,2.968,0,0,1-.292,2.888,14.512,14.512,0,0,0-2.013,5.79c-.065.579.036.883.678,1.1a6.493,6.493,0,0,0,6.9-1.144c.422-.375.681-.937,1.11-1.3a31.376,31.376,0,0,1,3.864-3.073,14.951,14.951,0,0,0,4.256-4.532,2.525,2.525,0,0,0,.215-1.43c-.019-.6-.236-1.2-.236-1.8,0-1.127.468-1.615,1.59-1.849,1.814-.377,3.633-.732,5.438-1.151a3.674,3.674,0,0,0,2.711-3.256c.039-.538.016-1.081.022-1.621a5,5,0,0,1,.969-2.906c.819-1.179,1.364-2.546,2.091-3.794a2.933,2.933,0,0,1,1.078-1.129c2.659-1.355,5.2-2.876,8.324-3.238a22.066,22.066,0,0,0,5.8-1.977,5.006,5.006,0,0,0,3.016-4.253c.227-1.672.495-3.339.783-5,.114-.659.336-1.3.5-1.95a18.348,18.348,0,0,0,.51-2.147,3.087,3.087,0,0,1,3.174-3c.641-.031,1.284-.01,1.926-.007,1.663.008,2.247.373,2.756,1.955a15.784,15.784,0,0,1,.822,3.437,3.738,3.738,0,0,0,2.466,3.28c.457.211.869.531,1.337.707,1.425.535,1.637,1.8,1.783,3.037a1.57,1.57,0,0,1-.641,1.16,9.878,9.878,0,0,0-3.471,3.438,1.169,1.169,0,0,1-.794.57c-.943.077-1.162.815-1.615,1.43a23.977,23.977,0,0,1-2.583,2.929A4.377,4.377,0,0,0,378.2,86.44c-.174,1.475-.4,2.944-.535,4.422a4.3,4.3,0,0,0,.221,1.576c.431,1.422.454,1.415-.123,2.545l2.687,1.648a5.619,5.619,0,0,1,.709-.98c.244-.221.671-.488.9-.407a1.107,1.107,0,0,1,.545.851c.045,1.6-.337,2.828-1.969,3.524a6.893,6.893,0,0,1-2.033.572c-.684.062-1.044.237-1.1.971-.076,1.087-.784,1.61-1.763,1.963-1.316.474-2.589,1.066-3.88,1.607l.126.308a15.845,15.845,0,0,1,2.064-.832,3.721,3.721,0,0,1,1.3.147,7.128,7.128,0,0,1-.232,1.3,1.506,1.506,0,0,1-.6.672c-1.92,1.233-3.561,2.947-5.863,3.521a1.181,1.181,0,0,0-1.035,1.581,14.764,14.764,0,0,1-.991,8.035c-.091.253-.161.517-.273.761-.609,1.331-.972,1.468-2.33.905l-1.318-.545c.383.607.628.972.849,1.351a22.6,22.6,0,0,1,1.449,2.58,3.048,3.048,0,0,1-.248,2.826,6.1,6.1,0,0,0-.792,3.278,3.944,3.944,0,0,1-.9,2.234c-.6.748-1.409.441-1.592-.515a3.081,3.081,0,0,1-.028-1.407,4.242,4.242,0,0,0-.517-3.309c-.344-.638-1.145-1.03-1.816-1.6l-.677,1.891c-.01-.02,0,.067.047.09,2.6,1.334,1.96,1.552,2.15,4.225a9.762,9.762,0,0,0,.16,1.679c.229.906.271.9-.341,1.689a7.913,7.913,0,0,0,.9-.332,1.464,1.464,0,0,1,2.26.818c.135.309.242.632.4.931a2.892,2.892,0,0,1-.577,3.77,3.442,3.442,0,0,0-.356.484c2.366.579,2.729,1,2.553,2.871-.14,1.484-.865,2.006-2.913,2.084-.187.584-.376,1.173-.565,1.763a4.679,4.679,0,0,1,1.459.127,1.664,1.664,0,0,1,.9.95,1.254,1.254,0,0,1-.536,1.042,21.219,21.219,0,0,1-3.158,1.564,2.7,2.7,0,0,0-1.723,1.7c-.206.569-.513,1.1-.738,1.664a3.649,3.649,0,0,1-2.628,2.31,3,3,0,0,0-2.548,2.856,6.51,6.51,0,0,1-2.413,4.615,1.963,1.963,0,0,0-.74,1.055c-.254,1.861-1.714,2.684-2.971,3.72a6.051,6.051,0,0,0-2.022,2.75,17.617,17.617,0,0,0-.914,8.651,2.129,2.129,0,0,0,.378,1.03,3.636,3.636,0,0,1,.575,3.532,1.366,1.366,0,0,0,.082.851c1.632,3.213,3.3,6.407,4.936,9.618,1.271,2.495,2.564,4.981,3.728,7.526a6.856,6.856,0,0,1,.309,2.433c.049.964-.035,1.936.029,2.9a9.936,9.936,0,0,1-1.857,6.457,2.668,2.668,0,0,1-2.949.844,1.851,1.851,0,0,1-.953-.9c-.368-.637-.6-1.348-.911-2.021a3.177,3.177,0,0,0-2.254-1.99,2.16,2.16,0,0,1-1.52-1.618,6.172,6.172,0,0,0-.858-1.411c-.11-.162-.335-.247-.445-.409q-1.451-2.119-2.873-4.257a1.766,1.766,0,0,1-.261-.653c-.245-1.4-.065-2.96-1.646-3.818-.233-.126-.3-.667-.335-1.026-.152-1.644-.242-3.295-.413-4.937a1.476,1.476,0,0,0-.518-.833c-1.113-.966-2.337-1.816-3.374-2.855a4.113,4.113,0,0,0-5.124-.774c-.706.468-1.537,1.156-2.263,1.1a5.638,5.638,0,0,1-4.265-1.817c-1.161-1.489-2.911-1.541-4.45-1.838-1.143-.221-2.432.377-3.666.548a5.822,5.822,0,0,0-2.731.784c-1.221.819-1.717.506-2.574-.906-.985,1.445-2.651,1.188-4.04,1.627a14.923,14.923,0,0,1-1.718.48c-.618.116-1.266.089-1.879.225a6.032,6.032,0,0,0-1.195.548c.184.154.444.479.541.436,1.079-.48,1.594.363,2.082.974.164.206-.1.928-.357,1.267-1.017,1.326-.981,1.721.44,2.712.192.134.483.242.545.424.19.56.291,1.15.427,1.729-.49.061-1.08.325-1.452.144-1.167-.568-2.253-1.3-3.386-1.984a1.231,1.231,0,0,1-.016.229c-.093.492-.193.982-.29,1.473-.445-.161-.882-.354-1.338-.475a2.356,2.356,0,0,0-1.2-.154c-1.606.535-3.134-.118-4.689-.251-.249-.021-.654-.558-.643-.844a1.359,1.359,0,0,0-1.05-1.416,11.222,11.222,0,0,1-1.112-.486.948.948,0,0,0-1.4.335,1.773,1.773,0,0,1-2.593.67,23.323,23.323,0,0,0-3.582-1.314,2.1,2.1,0,0,0-1.332.093,4.762,4.762,0,0,1-5.808-1.061c-.337-.327-.7-.623-1.1-.972l-1.072.766a14.209,14.209,0,0,1,1.467,1.314,1.947,1.947,0,0,1-.591,3.217,9.943,9.943,0,0,0-2.786,2.26,6.487,6.487,0,0,1-4.6,2.277,8.37,8.37,0,0,0-1.343.245c-.008,2.009-.851,2.877-2.779,2.963-.6.026-1.78,1.639-1.517,2.169a1.4,1.4,0,0,1-.723,2.15,12,12,0,0,0-1.335.909c.35,1.6.663,3.073,1,4.543a21.329,21.329,0,0,0,.6,2.245c.5,1.439-.161,2.291-1.676,1.952a22.136,22.136,0,0,1-3.657-1.154,43.49,43.49,0,0,1-4.172-2.052,4.131,4.131,0,0,1-2.276-3.166c-.161-1.2-.316-2.409-.554-3.6a1.732,1.732,0,0,0-.635-1.116,4.782,4.782,0,0,1-1.931-2.263c-1.5-2.832-2.973-5.677-4.532-8.475-1.483-2.661-4.766-3.665-7.274-3.464a2.947,2.947,0,0,0-2.194,1.284,22.918,22.918,0,0,1-1.982,2.419,1.9,1.9,0,0,1-2.669.248c-1.326-.864-2.615-1.789-3.9-2.718a6.093,6.093,0,0,1-2.141-3.706c-.792-3.3-2.812-5.918-4.744-8.5a19.66,19.66,0,0,0-4.9-4.008,6.738,6.738,0,0,0-2.645-.565c-1.762-.274-3.53-.514-5.354-.777-.132.57-.263,1.016-.335,1.471-.147.932-.675,1.21-1.576,1.08-4.377-.634-8.76-1.22-13.132-1.882a4.845,4.845,0,0,1-1.73-.786q-6.952-4.361-13.877-8.764a2.975,2.975,0,0,1-.883-.667c-1.516-2.16-3.844-2.52-6.189-2.864-2.4-.352-4.8-.738-7.211-1.054a1.238,1.238,0,0,1-1.235-1.314,15.286,15.286,0,0,0-1.442-5.128,4.343,4.343,0,0,0-1.886-2.152,3.769,3.769,0,0,1-.866-1.025,7.037,7.037,0,0,0-.757-1.117c-1.266-1.149-2.553-2.277-3.881-3.353-.562-.455-1.288-.7-1.862-1.147a5.131,5.131,0,0,1-1.661-1.625c-.785-1.744-1.292-3.611-2.037-5.374-.574-1.36-1.355-2.633-2.017-3.958-.3-.6-.493-1.262-.813-1.853a3.632,3.632,0,0,1,.177-4.095,1.411,1.411,0,0,0-.026-1.167c-.386-.82-.979-1.545-1.334-2.374-.662-1.549-.257-2.186,1.445-2.422.034-.438.068-.891.081-1.049-.9-.5-1.893-.755-2.372-1.394a7.128,7.128,0,0,1-.683-2.542,3.311,3.311,0,0,0-.2-.778,11.4,11.4,0,0,1-.749-8.438,12.915,12.915,0,0,0,.064-4.111,3.788,3.788,0,0,1,.654-2.657,16.134,16.134,0,0,0,3.192-9.326c0-1.043.147-2.086.242-3.128a4.414,4.414,0,0,1,1.413-2.912,8.163,8.163,0,0,0,1.49-2.616c1.716-3.924,3.387-7.868,5.069-11.806.422-.987.868-1.968,1.217-2.982a10.04,10.04,0,0,0,.1-1.377,5.9,5.9,0,0,1,.482-1.694c.329-.618.681-1.114.154-1.827-.195-.263-.1-.762-.087-1.152.038-1.54.1-3.08.139-4.62a3.356,3.356,0,0,0-.085-.395c-.092-.921-.212-1.984.631-2.516.873-.552,1.642.239,2.327.756a3.954,3.954,0,0,0,2.743,1.171,3.637,3.637,0,0,1,2.013.84,1.508,1.508,0,0,1,.371,1.228,2.693,2.693,0,0,1-2.134,2.591l1.171,1.432c.309-.328.707-.571.83-.914.326-.9.522-1.855.8-2.78.074-.25.306-.459.355-.709a12.212,12.212,0,0,0,.284-2c.028-.973-.089-1.951-.053-2.923.021-.572.411-.816,1-.63a21.321,21.321,0,0,1,2.4.766c.335.151.519.639.772.974l.029-.034-3.352-.458c.084,1.133.183,2.3.248,3.473a1.1,1.1,0,0,1-.163.76,4.866,4.866,0,0,0-1.2,3.408,2.138,2.138,0,0,1-.229.668c-.35.8-1.488,1.577-1.984,1.178a10,10,0,0,1-1.793-2.274c-.064-.095.234-.544.455-.7.728-.522,1.5-.985,2.322-1.517C153.8,59.591,150.98,59.9,149,58.329a7.061,7.061,0,0,0-.151,1.657c-.03,1.738-.067,3.475-.1,5.213,0,.193-.048.451.053.569.875,1.018.244,1.87-.255,2.748a2.04,2.04,0,0,0-.311.718c-.136,1.217-.232,2.438-.354,3.787a12.948,12.948,0,0,0,1.386.236,3.248,3.248,0,0,1,3.121,3.223,1.647,1.647,0,0,0,1.53,1.865c.611.142,1.272.055,1.9.148a4.585,4.585,0,0,1,2.1.492c1.805,1.457,3.679,1.086,5.642.569a5.047,5.047,0,0,1,1.939-.113c1.688.238,3.366.556,5.041.884.747.146,1.475.389,2.21.59.955.262,1.909.526,2.85.785.492-6.628,2.99-12.648,3.763-19.115-.3-.1-.673-.24-1.054-.348-3.963-1.118-7.931-2.222-11.89-3.354a9.454,9.454,0,0,1-1.359-.628Zm173.489,61.792-.055.072a6.5,6.5,0,0,1,.723.673c.994,1.245.987,1.25,2.508.757,2.134-.693,2.243-.645,3.439,1.64a3,3,0,0,0,.992-1.323c.247-1.205,1.159-1.471,2.093-1.691,2.232-.528,4.486-.965,6.717-1.5,2-.477,4-.83,5.713-2.248,1.515-1.257,1.86-1.74,1.018-3.545a5.994,5.994,0,0,0-.766-1.307,2.38,2.38,0,0,1-.426-2.172c.535-2.782.5-2.775-1.323-4.8a1.113,1.113,0,0,0-1.3-.366q-8.35,2.1-16.723,4.114c-1.607.386-1.62.326-2.058-1.281-.014-.051-.089-.087-.185-.175a6.583,6.583,0,0,0-1.089.664,1.064,1.064,0,0,0-.361.788c.435,2.712.969,5.41,1.357,8.128a13.133,13.133,0,0,1-.156,2.75c-.022.3-.074.59-.112.884-.872-.128-.8-.732-.732-1.378a6.331,6.331,0,0,0,.108-2.3c-.611-2.078-.367-4.311-1.237-6.332a14.661,14.661,0,0,1-.477-1.756,33.882,33.882,0,0,0-2.341,2.533,7.111,7.111,0,0,1-7.645,2.58,4.8,4.8,0,0,0-1.858-.4c-1.953.275-3.884.7-6.113,1.123.073,1.252.059,2.7.26,4.11.517,3.637,1.13,7.26,1.7,10.889a6.146,6.146,0,0,1,2.089.745,5.282,5.282,0,0,0,4.783.938c1.413-.275,2.628-.316,3.7.942.39-.693.748-1.3,1.074-1.92.248-.472.426-.982.684-1.447a9,9,0,0,0,1.043-1.763,3.616,3.616,0,0,1,2.115-2.555,2.5,2.5,0,0,0,1.738-2.424A1.671,1.671,0,0,1,338.506,120.075Zm-68.31,8.865c-1.364.142-2.725.354-4.092.416A165.844,165.844,0,0,1,239.3,128.4c-.58-.068-1.165-.1-1.824-.162-.372,6.15-.734,12.135-1.107,18.294,2.945.179,5.731.466,8.52.494,8.581.089,17.162.078,25.743.106.325,0,.651,0,1.066,0,0-.453-.006-.783,0-1.112.066-3.173.047-6.352.245-9.517a3.176,3.176,0,0,0-1.068-3.012,1.855,1.855,0,0,1-.625-2.591c.095-.152-.137-.48-.142-.727-.008-.418.045-.837.066-1.262.768.1,1.729,1.517,1.319,2.2-.668,1.118.1,1.623.726,2.158a2.464,2.464,0,0,1,.953,2.212c-.109,1.446-.24,2.9-.236,4.344.009,3.1.108,6.2.151,9.3.01.7.294.917.989.887,2.966-.128,5.934-.213,8.9-.3,3.881-.121,7.762-.244,11.644-.343,1.137-.029,1.363.27,1.2,1.4-.061.419-.114.839-.17,1.256,1.483.222,1.432.206,1.648-1.053.119-.692.308-1.736.765-1.936,1.194-.522,1.114-1.439,1.252-2.446a2.1,2.1,0,0,1-1.643-2.355,3.439,3.439,0,0,0-2.415-3.419c-2.365-1.057-2.682-1.946-1.866-4.419a1,1,0,0,0-.7-1.477,3.458,3.458,0,0,1-1.249-.781,26.272,26.272,0,0,1-2.522-2.872,11.4,11.4,0,0,1-1.529-2.9,17.046,17.046,0,0,1-.443-3.108c-1.931-.06-3.878-.184-5.823-.163-2.26.024-4.519.172-6.777.273-1.925.087-3.851.174-5.775.291a.767.767,0,0,0-.511.372c-.052.093.107.341.217.483C268.9,127.324,269.553,128.13,270.2,128.939Zm-60.071,47.944-.049.3c.881.724,1.826,1.383,2.631,2.183a25.255,25.255,0,0,1,6.633,10.238,9.485,9.485,0,0,0,2.012,3.544,17.036,17.036,0,0,0,3.7,2.627,1.544,1.544,0,0,0,1.424-.08,9.834,9.834,0,0,0,1.686-1.99,3.923,3.923,0,0,1,2.943-1.948c3.4-.2,6.431.717,8.308,3.759,1.608,2.606,2.958,5.372,4.391,8.084a5.893,5.893,0,0,0,2.1,2.639,2.755,2.755,0,0,1,.867,1.683c.225,1.016.259,2.074.4,3.111a3.713,3.713,0,0,0,2.213,3.057c1.8.836,3.6,1.693,5.435,2.458a17.507,17.507,0,0,0,2.526.632c-.375-1.507-.711-2.77-1-4.044a16.5,16.5,0,0,0-.5-2.569c-.65-1.6-.7-1.63.8-2.6a5.515,5.515,0,0,0,.824-.586c.143-.136.319-.464.258-.554-.937-1.378.825-2.217.692-3.436-.009-.088.49-.287.77-.335.362-.062.742,0,1.112-.032a1.461,1.461,0,0,0,1.515-1.644,1.134,1.134,0,0,1,.965-1.322,5.191,5.191,0,0,1,1.091-.217,6.545,6.545,0,0,0,4.632-2.363A17.532,17.532,0,0,1,271,195.507c.845-.577,1.025-1.264.278-1.972a16.723,16.723,0,0,0-1.74-1.192,4.988,4.988,0,0,1-.642-.67,5.007,5.007,0,0,1,.7-.626,8.318,8.318,0,0,0,1.163-.588,1.3,1.3,0,0,1,2.094.123,4.823,4.823,0,0,0,.964.891c.683.427,1.413.778,2.211,1.209a29.4,29.4,0,0,1,.033-3.753,15.061,15.061,0,0,1,.983-3.87,2.526,2.526,0,0,0,.186-2.2,32.707,32.707,0,0,1-2.151-6.283,33.764,33.764,0,0,1-.054-6.445c.013-.619-.123-.908-.77-1.028a8.391,8.391,0,0,1-2.417-.694,6.212,6.212,0,0,0-5.73-.343,9.908,9.908,0,0,1-6.819.264c-.975-.26-2.005-.308-2.984-.557a9.422,9.422,0,0,1-1.722-.771,5.212,5.212,0,0,0-1.22-.634c-2.812-.48-5.158-2.1-7.757-3.1A1.6,1.6,0,0,1,244.5,161.4c.27-3.128.439-6.266.685-9.4.053-.68-.111-.975-.832-1.042q-6-.558-12-1.2c-.771-.083-1.087.127-1.169.919-.4,3.794-.86,7.581-1.253,11.375-.206,2-.352,4-.458,6.008-.156,2.964-.212,5.935-.39,8.9-.09,1.5-.409,1.7-1.957,1.523-2.109-.236-4.212-.529-6.323-.744-3.25-.331-6.5-.62-9.758-.914A5.884,5.884,0,0,0,210.125,176.884Zm-41.719-12.872c.084-.748.218-1.642.278-2.54a4.943,4.943,0,0,1,.917-3.034,14.993,14.993,0,0,0,1.567-2.357,2.224,2.224,0,0,0,.333-1.5,22.021,22.021,0,0,0-1.931-4.974c-6.026-9.573-12.175-19.068-18.252-28.608a2.093,2.093,0,0,1-.256-1.468c.861-3.439,1.8-6.859,2.7-10.286.619-2.342,1.228-4.687,1.867-7.131l-16.981-5.2a23,23,0,0,1-3.139,7.254,3.222,3.222,0,0,0-.65,2.338,14.875,14.875,0,0,1-.313,5.7,7.83,7.83,0,0,0,.455,5.328,11.705,11.705,0,0,1,.7,3c.158,1.349.775,1.9,2.1,1.647.838-.161,1.127.151,1.1,1.069a4.718,4.718,0,0,0,.155,1.633c.272.794.08,1.121-.794,1.061-.409-.028-.818-.042-1.227-.061l-.231.285c.532.912,1.019,1.855,1.609,2.729a1.952,1.952,0,0,1,.047,2.5,2.105,2.105,0,0,0-.439,2.175c.461,1.05.841,2.137,1.337,3.17.612,1.274,1.391,2.473,1.944,3.77.725,1.7,1.263,3.48,1.966,5.191a2.793,2.793,0,0,0,1.021,1.008c.893.636,1.859,1.171,2.729,1.835a34.67,34.67,0,0,1,3.062,2.583c1.32,1.275,2.274,2.892,3.706,4.072a.2.2,0,0,1,.045.09c.61,1.881,1.783,3.586,1.757,5.668-.008.626.288.928.966,1.01,1.743.209,3.48.477,5.21.78C163.912,163.126,166.05,163.561,168.407,164.012Zm27.962,13.523c.585.081,1.038.154,1.494.206,1.584.182,1.622.188,1.97-1.4.168-.766.541-1,1.278-.893,2.168.329,4.342.621,6.51.955.737.114,1.43.337,1.967-.492.14-.216.671-.277,1.01-.25,1.883.153,3.764.349,5.644.542q5.313.546,10.623,1.111c.742.08,1.111-.108,1.134-.942.056-2.025.175-4.048.3-6.07a3.455,3.455,0,0,1,.435-.946c-.278-.452-.369-.461-.171-2.644.533-5.879,1.148-11.749,1.738-17.623.065-.652.181-1.3.283-2.013l-28.757-2.848Zm127.021,3.832c-.343.065-.634.13-.928.175-2.735.416-5.468.848-8.208,1.23-.968.135-1.953.149-2.931.206-.69.04-.882.3-.584.979.811,1.849.966,1.973,2.956,1.69.866-.123,1.72-.325,2.582-.479a1.826,1.826,0,0,1,.889-.078c1.732.706,3.731.661,5.125,2.368.65.8,2.059,1.094,3.184,1.325.5.1,1.184-.466,1.723-.823,2.19-1.452,4.7-.706,6.436.808,1.11.97,2.31,1.836,3.436,2.788a2.034,2.034,0,0,1,.781,1.056c.205,1.707.324,3.426.409,5.145a1.478,1.478,0,0,0,.974,1.491,1.247,1.247,0,0,1,.868,1.506,4.5,4.5,0,0,0,1.952,4.481c.236.18.6.425.6.641,0,1.033.723,1.52,1.375,2.106a1.736,1.736,0,0,1,.522.953c.144.937.738,1.3,1.542,1.662a4.659,4.659,0,0,1,1.749,1.411,8.963,8.963,0,0,1,1.248,2.417c.276.788.755,1.069,1.44.8a2.6,2.6,0,0,0,1.375-1.037c.83-1.795,1.657-3.6,1.177-5.718a15.225,15.225,0,0,1,.045-2.5,6.358,6.358,0,0,0-.355-2.3c-1.214-2.635-2.546-5.215-3.833-7.816-1.332-2.691-2.614-5.409-4.023-8.059-.475-.893-1.14-1.575-.77-2.757.684-2.185-1.1-4.094-3.62-3.317-.02.161-.042.329-.063.5-.178,1.428-.306,1.505-1.759,1.235-.954-.177-1.922-.282-2.871-.48-.229-.048-.41-.332-.613-.508.185-.206.338-.533.561-.592a2.665,2.665,0,0,1,1.093.034c.749.131,1.491.305,2.3.475a3.025,3.025,0,0,0,.169-.756c-.081-1.184.666-1.316,1.562-1.259.655.042,1.308.109,2.022.169a21.752,21.752,0,0,1,1.035-7.674,1.22,1.22,0,0,0-.308-1.1,10.04,10.04,0,0,1-2.646-3.391,14.2,14.2,0,0,0-2.21-3.094c-2.352-2.328-4.837-4.52-7.245-6.792-.919-.867-2.244-1.519-1.732-3.345l-10.815,1.014,2.257,8.9a16.053,16.053,0,0,0,2.105,5.637,4.505,4.505,0,0,1,.289,2.241c.044,1.2-.093,2.424.052,3.612.185,1.5.659,2.97.85,4.473.137,1.074.641,1.279,1.6,1.226,2.565-.14,5.133-.207,7.7-.287.436-.013,1.084-.2,1.032.54-.015.211-.59.528-.924.548q-3.844.235-7.695.359C324.13,183.465,324.129,183.437,323.39,181.367ZM177.136,139.353c-.288,1.43-.567,2.712-.8,4-.339,1.863-.678,2.075-2.415,1.426-1.44-.538-1.564-.409-1.6,1.161a10.536,10.536,0,0,1-.386,3.679,3.047,3.047,0,0,0,.088,2.85,4.156,4.156,0,0,1-.6,5.286,6.531,6.531,0,0,0-1.684,4.835,4.779,4.779,0,0,1-.193,1.295c-.4,1.578-.413,1.577.939,2.593.243.182.5.353.752.514,4.424,2.794,8.84,5.6,13.285,8.359a6.536,6.536,0,0,0,2.132.8c1.488.3,3,.489,4.5.7,1.321.187,2.646.342,4.082.525,1.828-11.18,3.633-22.223,5.457-33.372Zm-1.993,4.622,6.822-35.664-25.228-5.6a.593.593,0,0,0-.109.215q-2.212,8.322-4.4,16.65a1.346,1.346,0,0,0,.12.936c.664,1.112,1.388,2.189,2.087,3.28l13.006,20.3c1.1,1.723,2.211,3.444,3.478,5.416a10.671,10.671,0,0,0,.2-1.182c.032-1.012.022-2.026.055-3.038.055-1.667.985-2.316,2.54-1.793Zm30.871-25.3-4,24.418,33.185,3.28c.189-2.972.37-5.729.537-8.488.286-4.716.551-9.433.858-14.148.054-.822-.23-1.1-1.041-1.2-3.08-.394-6.151-.858-9.222-1.322a4.388,4.388,0,0,1-1-.444,5.787,5.787,0,0,1-1.3.154c-1.162-.094-2.318-.269-3.475-.42-1.875-.246-3.748-.509-5.624-.748-2.567-.327-5.136-.639-7.7-.954C206.871,118.758,206.509,118.729,206.014,118.679Zm23.442-21.923c-.919-.118-1.78-.23-2.64-.338q-12.4-1.564-24.8-3.133c-2.492-.32-2.515-.36-2.912,2.152-.885,5.6-1.734,11.2-2.611,16.8-.2,1.252-.444,2.5-.692,3.877l31.289,4.174C227.892,112.315,228.667,104.6,229.457,96.757ZM169.2,104.468c.136-.618.229-1.041.322-1.464.755-3.458,1.517-6.914,2.257-10.375.09-.421,0-.882.094-1.3.278-1.192.329-2.574,1-3.5a11.728,11.728,0,0,1,3.115-2.331c.493-.333,1.321-.538.981-1.267a3.078,3.078,0,0,0-1.488-1.393,21.649,21.649,0,0,0-3.11-.832c-.77-.2-1.531-.43-2.309-.58-1.511-.292-3.028-.568-4.551-.784a4.58,4.58,0,0,0-1.7.074c-1.86.46-3.814.894-5.493-.144a5.278,5.278,0,0,0-3.476-.935,3.351,3.351,0,0,1-.906-.078,2.8,2.8,0,0,1-2.671-2.939,3.5,3.5,0,0,0-.53-1.37c-.614-1.076-1.8-.706-2.71-1.027-.9-.316-1.184.1-1.483.81-1.619,3.855-3.225,7.717-4.94,11.529a27.462,27.462,0,0,1-2.017,3.1,3.917,3.917,0,0,0-.54,1.286,18.759,18.759,0,0,0-.272,2.311c-.178,2.528-.169,2.528,2.3,3.181.065.017.129.04.193.06,6.587,1.991,13.162,4.021,19.765,5.952C163.663,103.225,166.372,103.779,169.2,104.468Zm8.27,33.787,23.429,4.62,3.972-24.315c-.458-.1-.748-.173-1.043-.214q-3.862-.539-7.725-1.064c-1.466-.2-1.539-.284-1.309-1.72.182-1.133.281-2.287.564-3.395.235-.917-.1-1.165-.921-1.324-2.551-.5-5.088-1.07-7.634-1.6-1.237-.258-2.48-.488-3.742-.735Zm112.857-60.8a2.434,2.434,0,0,0-2.731-.762,10.6,10.6,0,0,1-7.144-1.141,10.139,10.139,0,0,0-5.509-1.054,8.042,8.042,0,0,1-4.538-.73,13.805,13.805,0,0,0-7.077-1.279c-.621.037-1.247.006-1.867.006.008,2.662-.363,5.247.956,7.64a3.706,3.706,0,0,1,.4,1.662,33.01,33.01,0,0,0-.034,4.22,15.47,15.47,0,0,1-.108,5.527,1.141,1.141,0,0,0,.313.942,3.641,3.641,0,0,1,1.429,2.9c.055,2.36.043,4.721.053,7.081.006,1.2,0,2.4,0,3.722l22.386-.921.225-.281a10.8,10.8,0,0,0-.9-1.245,15.79,15.79,0,0,1-2.241-2.268,2.152,2.152,0,0,0-1.623-1.263c-1.927-.3-2.45-.874-2.71-2.812a14.025,14.025,0,0,0-.4-2.994,4.54,4.54,0,0,1,.931-4.874,3.765,3.765,0,0,0,.694-2.012,2.615,2.615,0,0,1,.913-2.037,3.7,3.7,0,0,0,.982-.989c.576-1.057.966-2.223,1.612-3.229a5.488,5.488,0,0,1,1.786-1.658C287.417,78.839,288.8,78.222,290.323,77.455Zm-60.852,30.692c.455.072.781.139,1.11.174a135.112,135.112,0,0,0,21.221.825,4.639,4.639,0,0,1,3.053.808,2.351,2.351,0,0,0,2.273.363,4.977,4.977,0,0,1,2.289,0c.985.166,1.943.5,3.009.787a15.52,15.52,0,0,1,.205-2.506c.995-4.057.834-8.178.717-12.291a6.362,6.362,0,0,0-.75-2.557,11.908,11.908,0,0,0-1.482-1.927L231.221,90.59C230.654,96.276,230.07,102.14,229.471,108.147Zm-48.92-45.125c-.263,1.241-.5,2.464-.781,3.675-.83,3.547-1.77,7.071-2.489,10.64-.413,2.052-1.078,4.2.656,6.126a1.837,1.837,0,0,1-.426,2.461,36.457,36.457,0,0,1-3.224,2.215,1.962,1.962,0,0,0-1.1,1.562c-.121,1.069-.089,2.164-.3,3.211-.72,3.535-1.5,7.059-2.3,10.575-.213.925.1,1.221.966,1.4,5.917,1.219,11.825,2.483,17.736,3.731,2.133.45,4.267.9,6.442,1.355l2.328-15.332c-.375-.089-.666-.152-.955-.228a8.671,8.671,0,0,0-4.391.253c-1.872.465-2.4.163-3.037-1.669-.4-1.147-.778-2.306-1.07-3.484a6.738,6.738,0,0,1-.2-2.16c.1-1.115.107-1.174-.989-1.1a5.96,5.96,0,0,1-.707.029c-1.034-.061-1.445-.585-1.229-1.606a28.622,28.622,0,0,1,.983-4.233c.542-1.432-.121-2.319-.96-3.22-.412-.442-.964-.757-1.358-1.212a7.016,7.016,0,0,1-1.3-1.85,14.381,14.381,0,0,1-.394-8.849c.455-1.951.786-1.765-1.542-2.314A1.61,1.61,0,0,0,180.551,63.023Zm57.171,63.954c3.352,1.038,29,1.885,30.571.968a1.887,1.887,0,0,0-.29-.5,4.914,4.914,0,0,1-1.489-3.239,11.167,11.167,0,0,0-.31-2.6c-1.182-3.043-2.488-6.038-3.757-9.047a.513.513,0,0,0-.28-.267c-1.57-.466-3.1-1.3-4.8-.857a3.611,3.611,0,0,1-3.168-.546,3.6,3.6,0,0,0-2.48-.621c-5.983.452-11.946-.075-17.91-.451-1.466-.093-2.924-.291-4.461-.449-.355,3.525-.685,6.915-1.048,10.3-.078.729.4.746.863.814,2.472.359,4.941.734,7.418,1.052.824.106,1.188.43,1.156,1.294C237.685,124.2,237.722,125.583,237.722,126.977Zm-6.363-37.9c.395.074.655.146.919.168,2.421.209,4.84.5,7.265.594,6.747.255,13.5.438,20.246.618,1.988.053,2.411-.5,2.107-2.514-.05-.334-.146-.664-.164-1a11.382,11.382,0,0,1-.039-2.309,8.142,8.142,0,0,0-.578-4.759,9.334,9.334,0,0,1-.788-4.922c.044-.468-.006-.945,0-1.417.011-.812-.3-1.2-1.2-1.2-2.766.01-5.536.008-8.3-.105-4.552-.186-9.1-.459-13.651-.7-1.36-.074-2.718-.176-4.119-.268C232.487,77.293,231.929,83.129,231.359,89.082Zm41.352,78.391a2.767,2.767,0,0,0,.187-.669c.058-3.273.261-6.555.1-9.818-.135-2.686-.734-5.346-1.078-8.024-.091-.708-.524-.656-1-.664q-4.866-.086-9.732-.178c-9.519-.18-19.063.483-28.547-.85-1.025-.144-.976.484-.993,1.205.361.07.683.157,1.012.191,4.133.422,8.265.864,12.4,1.234,1,.09,1.4.5,1.3,1.463-.03.3-.023.608-.045.911-.219,2.931-.423,5.863-.676,8.792a1.162,1.162,0,0,0,.842,1.377c1.1.435,2.143.986,3.225,1.456.734.319,1.487.6,2.239.87,1.039.379,2.093.718,3.126,1.112.673.257,1.3.661,1.984.857.937.267,1.914.39,2.871.59a8.506,8.506,0,0,0,5.347-.185,7.468,7.468,0,0,1,7.1.266A1.15,1.15,0,0,0,272.711,167.472Zm14.611-83.422a4.114,4.114,0,0,0-.671.161,26.029,26.029,0,0,0-3.21,1.43c-.583.345-1.339,1.033-1.351,1.581a6.342,6.342,0,0,1-1.5,3.759,3.146,3.146,0,0,0-.527,1.941c.1,1.436.418,2.854.624,4.284a1.925,1.925,0,0,0,1.791,1.935,3.052,3.052,0,0,1,2.067,1.176,6.259,6.259,0,0,0,2.215,2.4,2.627,2.627,0,0,1,1.27,2.948,4.612,4.612,0,0,0,1.368,4.142c.577.667,1.5,1.49,2.252,1.471,3.505-.091,7-.444,10.5-.731.248-.021.664-.246.686-.417.142-1.084.436-2.16-.278-3.23a3.606,3.606,0,0,1-.414-1.892c-.009-1.311.18-2.625.158-3.936a9.358,9.358,0,0,1,.794-4.633,3.215,3.215,0,0,0,.168-.734,13.227,13.227,0,0,1-1.75,1.035,1.067,1.067,0,0,1-.975-.183,1.274,1.274,0,0,1-.2-1.065,8.305,8.305,0,0,1,.813-1.265,1.191,1.191,0,0,0,.214-.774,18.332,18.332,0,0,0-.75-2.094,1.921,1.921,0,0,0-1.55-1.279c-1.63-.278-3.238-.679-4.867-.958-1.947-.333-3.634-.936-3.892-3.221C288.024,86.248,287.383,85.841,287.322,84.051Zm-.708,22.384c-1.866.082-3.815.174-5.765.252-5.3.214-10.6.418-15.9.648-.316.014-.851.166-.9.354a8.853,8.853,0,0,0,.023,5.942c1.415,3.263,3.308,6.353,3.516,10.036.035.621.285.859.959.818,2.367-.142,4.738-.268,7.109-.306,3.864-.061,7.732-.732,11.43.1.483-.876.881-1.648,1.328-2.39a2.13,2.13,0,0,0,.354-1.68,2.583,2.583,0,0,1,.56-1.759,6.463,6.463,0,0,1,1.509-1.174,2.726,2.726,0,0,0,.264-4.413,10.867,10.867,0,0,0-1.215-1.071C288.017,110.512,287.366,108.511,286.614,106.434Zm5.962,6.066c1.256,2.757.773,4.463-1.676,6.15a5.145,5.145,0,0,0-.8.616c-.146.151-.322.452-.263.593.516,1.231-.114,2.138-.764,3.073a6.653,6.653,0,0,0,.594,7.458,17.658,17.658,0,0,1,2.07,2.207,3.4,3.4,0,0,0,1.8,1.518,1.565,1.565,0,0,1,1.084,1.916,5.864,5.864,0,0,1-.389,1.358,1.5,1.5,0,0,0,.782,2.037c.706.4,1.43.762,2.142,1.15a2.547,2.547,0,0,1,1.432,2.072,20.093,20.093,0,0,0,.3,2,2.356,2.356,0,0,0,.383.652,2.783,2.783,0,0,1,.509-.365,4.445,4.445,0,0,1,1.178-.4,3.206,3.206,0,0,1,.95.146,8.93,8.93,0,0,1,1.236-2.39,4.5,4.5,0,0,0,1.186-2.384c.341-1.471.656-2.95,1.069-4.4a4.825,4.825,0,0,0,0-3.533,6.381,6.381,0,0,1-.151-2.389c-.014-1.006.071-2.017.007-3.019-.206-3.234-.469-6.465-.686-9.7a2.464,2.464,0,0,1,.155-1.285,1.766,1.766,0,0,0-.091-1.811c-1.057-2.119-1.053-2.122-3.388-1.943Zm-19.236,38.672a51.236,51.236,0,0,1,.621,16.391c.856.5,1.827.747,2.14,1.341.343.65.078,1.621.078,2.59,1.9,0,3.733,0,5.567,0,2.4,0,4.8.019,7.2.02.389,0,.778-.05,1.171-.077-.453-4.077,1.334-7.249,3.326-10.464a69.984,69.984,0,0,0,3.537-7.458c-1-.241-2.026-.191-2.37-.65-.364-.486-.082-1.456-.082-2.412Zm49.872,29.059c-.132-.7-.276-1.223-.322-1.752a41.843,41.843,0,0,1-.356-5.414,4.285,4.285,0,0,0-.7-2.835,6.255,6.255,0,0,1-.86-1.9c-.984-3.686-1.925-7.384-2.865-11.083-.14-.549-.306-.894-1-.8q-4.813.682-9.637,1.278c-.665.083-.9.373-.935,1.028-.142,2.393-.344,4.783-.507,7.176a93.647,93.647,0,0,0-.03,16.8c.142,1.275.257,2.553.384,3.83a2.543,2.543,0,0,0,.694-.743c.288-.332.63-.619.948-.924a4.361,4.361,0,0,1,.826,1.013c.437,1.1.548,1.149,1.72.346-.259-.555-.522-1.129-.793-1.7-.766-1.613-.181-2.64,1.589-2.773,1.986-.149,3.984-.2,5.956-.462S321.207,180.612,323.212,180.232Zm-22.5,10.713a7.185,7.185,0,0,0-1.036.008c-.911.134-1.332-.471-1.544-1.148-.111-.354.066-1.131.282-1.2,1.262-.415.774-1.058.348-1.746a11.315,11.315,0,0,1-.763-1.312,1.143,1.143,0,0,0-1.286-.7c-2.4.095-4.795.125-7.192.2-.871.028-1.232-.352-1.188-1.214a10.094,10.094,0,0,1,2.452-6.391,1.108,1.108,0,0,0,.153-1.507,5.769,5.769,0,0,1-.693-2.284c-.053-.83-.351-1-1.1-.993-1.788.009-3.576-.073-5.364-.105-2.429-.043-4.858-.1-7.286-.093-.628,0-.946.354-.806,1.113.266,1.448.251,2.964.655,4.365.316,1.1.287,2.318,1.163,3.3a3.347,3.347,0,0,1,.91,2.282c-.186,1.517-.912,2.965-1.129,4.483a33.469,33.469,0,0,0-.044,4.567,4.944,4.944,0,0,1,1.111-.494,5.709,5.709,0,0,1,2.052-.076,17.569,17.569,0,0,1,3.375,1.262c.862.427,1.285.114,1.874-.477a2.071,2.071,0,0,1,1.651-.633c1.509.518,3.358.776,3.494,3.116h5.821c.117-.5.193-1.358.346-1.373a3.331,3.331,0,0,1,1.655.348,9.9,9.9,0,0,1,1.169.957c.584.4,1.209.751,1.816,1.122-.584-.891-1.39-1.523-1.906-2.339C298.938,192.768,300.186,192.135,300.716,190.944Zm60.2-109.321c-1.07.516-2.07,1.088-3.134,1.493a5.865,5.865,0,0,0-3.467,3.295c-.933,2.15-2.382,4.029-2.191,6.673a3.693,3.693,0,0,1-2.7,3.669A47.545,47.545,0,0,1,344.006,98c-1.483.271-1.861.63-1.387,2.056a3.308,3.308,0,0,1-.683,3.384,17.609,17.609,0,0,1-1.2,1.5,1.859,1.859,0,0,0-.314,2.37,2.859,2.859,0,0,0,.442-.032c5.6-1.362,11.216-2.684,16.8-4.13a1.847,1.847,0,0,1,2.3.714c.582.777,1.184,1.762,2,2.087a22.8,22.8,0,0,0,4.3.866,11.7,11.7,0,0,0-.308-4.946,11.166,11.166,0,0,1-.436-3.774,11.953,11.953,0,0,0-1.969-8.361,12.244,12.244,0,0,1-1.138-3.416c-.279-.96-.462-1.948-.749-2.905A18.4,18.4,0,0,0,360.917,81.624Zm-55.5,76.4c-3.183.413-6.158.784-9.126,1.207a1.455,1.455,0,0,0-.805.625c-.579.825-1.12,1.678-1.638,2.544-1.443,2.414-2.8,4.861-2.647,7.82.06,1.14.071,2.285.182,3.42a4.134,4.134,0,0,0,.459,1.629c.819,1.421.806,1.72-.293,3.009a9.146,9.146,0,0,0-2.053,5.587c.5,0,.9.007,1.3,0,2.194-.049,4.391-.056,6.581-.178a1.219,1.219,0,0,1,1.331.773c.664,1.241,1.388,2.45,2,3.513,1.343-.3,2.539-.575,3.739-.832a.785.785,0,0,0,.719-.991c-.127-1.138-.207-2.282-.268-3.425-.153-2.861-.448-5.727-.386-8.585.091-4.216.441-8.426.685-12.638C305.261,160.392,305.339,159.291,305.422,158.019Zm58.215-18.954-.3-.337c-.922.285-1.829.641-2.769.844-7.353,1.592-14.676,3.354-22.181,4.113-.935.095-1.534.367-1.738,1.384a2.371,2.371,0,0,1-1.915,1.943,5.33,5.33,0,0,0-2.58,1.663,7.481,7.481,0,0,1-2.481,1.989c-.957.5-1.86,1.1-2.814,1.6a1.616,1.616,0,0,0-.843,1.969c1.887-.182,3.805.242,5.663-.545a20.108,20.108,0,0,1,7.917-1.925,6.623,6.623,0,0,1,2.7.583,6.368,6.368,0,0,0,4.76.706,3.546,3.546,0,0,1,2.241.277c1.786.8,3.506,1.743,5.245,2.642a1.788,1.788,0,0,0,2.664-.821,8.368,8.368,0,0,0,.736-1.554,4.331,4.331,0,0,1,3.354-3.151,11.525,11.525,0,0,0,2.236-1.111l-.131-.367a10.2,10.2,0,0,1-1.547.126c-.4-.024-.953-.112-1.133-.378-.143-.212.175-.735.286-1.12a10.785,10.785,0,0,1,.458-1.526,2.2,2.2,0,0,1,.77-.917c.2-.127.585.053.888.059,1.046.021,1.484-.356,1.537-1.3.066-1.163-.157-1.413-1.348-1.5a4.129,4.129,0,0,1-.707-.032c-.393-.1-.773-.256-1.159-.389a5.873,5.873,0,0,1,.554-1.095C362.516,140.253,363.09,139.67,363.637,139.065ZM323.62,98.175a25.859,25.859,0,0,1-2.233,2.2,1.454,1.454,0,0,1-1.326.03,1.256,1.256,0,0,1-.563-1.654c.574-1.475,1.139-2.96,1.588-4.475a2.707,2.707,0,0,0-.274-1.457,10.678,10.678,0,0,1-.769-1.9c-.085-.649-.324-.815-.9-.951a21.627,21.627,0,0,1-2.442-.835c-1.032-.379-2.058-.775-3.221-1.216a7.276,7.276,0,0,1-.2,1.307,6.486,6.486,0,0,1-.862,1.859,1.75,1.75,0,0,0-.477,1.641c.222.922-.117,1.454-1.1,1.659a2.277,2.277,0,0,0-1.986,2.232,7.872,7.872,0,0,1-.271,1.492,6.455,6.455,0,0,0,.974,6.137,5.3,5.3,0,0,1,.838,4.338c-.351,1.593-.59,3.212-.917,5.033,1.226-.078,2.461-.129,3.689-.243,1.879-.175,3.754-.392,5.63-.594,1.341-.144,2.684-.281,4.023-.444a1,1,0,0,0,.978-1.065,14.732,14.732,0,0,1,2.139-6.473,2.245,2.245,0,0,0,.228-1.71C325.43,101.442,324.518,99.874,323.62,98.175Zm-3.683,32.243c-.073.327-.112.486-.143.645-.209,1.081-.394,2.146-1.8,2.365-.266.042-.534.49-.68.806-.424.918-.753,1.881-1.184,2.795-.373.788-.923,1.331-1.931,1.012a.887.887,0,0,0-.748.109c-1.5,1.5-3.339,1.806-5.372,1.869-1.278.039-2.9-.044-3.192,1.918-.046.314-.463.56-.668.866a5.04,5.04,0,0,0-.8,1.356c-.529,1.959-.5,1.967-2.422,1.573-.057-.012-.125.028-.337.08l-.45,2.678a9.96,9.96,0,0,0,1.174-.116c1.762-.415,3.5-.978,5.282-1.256,6.432-1.006,12.873-1.967,19.325-2.833a5.177,5.177,0,0,0,3.433-2.356c.775-.961,1.612-1.874,2.434-2.8.376-.422.782-.818,1.047-1.093-1-1.611-2.021-3.142-2.919-4.745-.84-1.5-.933-1.527-2.658-1.307-1.975.252-3.966.431-5.677-1.054C321.259,130.586,320.555,130.59,319.936,130.418ZM296.3,158.01c.393-.034.622-.045.849-.074q3.512-.458,7.023-.921c6.59-.863,13.177-1.738,19.771-2.569.7-.089.938-.375.916-1.016a2.141,2.141,0,0,1,1.237-2.045c1.176-.66,2.361-1.305,3.525-1.984a3.03,3.03,0,0,0,1.19-.889,6.119,6.119,0,0,1,3.612-2.6c.93-.35,1.106-.9,1.274-1.76-.278.016-.471.015-.661.041-3.142.428-6.285.85-9.425,1.292-5.275.743-10.558,1.437-15.817,2.278-2.48.4-4.906,1.122-7.371,1.628a22.3,22.3,0,0,1-2.72.231c-.761.06-1.283.344-1.248,1.231a12.094,12.094,0,0,1-1.249,4.823C296.925,156.392,296.646,157.112,296.3,158.01Zm66.829-20.365c-.524-1.678-.522-1.674-1.967-1.178-.22.076-.511.193-.683.111a3.953,3.953,0,0,1-1.357-.895c-.113-.137.334-.718.49-1.11a1.858,1.858,0,0,0,.146-.705c-.01-.528-.085-1.053-.107-1.581-.119-2.893.232-2.6-2.11-3.6-.341-.145-.674-.312-1.017-.452a3.457,3.457,0,0,1-2.264-3.275,2.11,2.11,0,0,0-1.881-1.573c-.643.133-1.31.142-1.956.263-.361.068-.857.15-1.025.4-1.171,1.767-2.272,3.58-3.4,5.378-.107.172-.178.463-.319.5-1.179.313-1.02,1.37-1.246,2.2-.15.551-.192,1.131-.316,1.691a5,5,0,0,1-3.231,4.08c-1.466.5-2.938,1.006-4.44,1.377a2.835,2.835,0,0,1-1.74-.237.966.966,0,0,0-1.32.212c-1.3,1.405-2.626,2.8-3.94,4.194l.227.259A220.018,220.018,0,0,0,363.127,137.645ZM316.8,114.1c-.122,0-.488-.022-.85,0q-3.422.241-6.841.506c-.192.015-.472.043-.551.167a2.222,2.222,0,0,1-2.765.963,8.23,8.23,0,0,0-.094,1.042c.089,1.753.2,3.5.3,5.258.151,2.852.842,5.677.354,8.564a6.417,6.417,0,0,0,.284,1.571,10.58,10.58,0,0,1,.14,2.441,16.627,16.627,0,0,1-.726,2.31c-.2.719-.336,1.458-.505,2.214,1.377-.129,2.54-.3,3.707-.329a5.014,5.014,0,0,0,3.342-1.441c.327-.293.9-.656,1.216-.552,1.24.406,1.435-.438,1.733-1.234.177-.474.362-.946.544-1.419a2.789,2.789,0,0,1,1.859-1.981.842.842,0,0,0,.5-.533,9.833,9.833,0,0,0-.082-5.964,6.777,6.777,0,0,1-.315-1.962c-.072-.836-.009-1.687-.127-2.515C317.587,118.888,317.192,116.575,316.8,114.1Zm37.259,42.832c-1.979-.978-3.743-1.885-5.543-2.71a2.108,2.108,0,0,0-1.38-.07,6.016,6.016,0,0,1-5.141-.745,4.584,4.584,0,0,0-2.818-.528,23.156,23.156,0,0,0-7.108,1.867c-1.447.564-1.59,1.251-.441,2.3,2.291,2.1,4.568,4.206,6.876,6.283a13.691,13.691,0,0,1,3.778,4.929c.464,1.132,1.021,2.27,2.108,2.619,1.065-.946,2-1.841,3.008-2.649a4.039,4.039,0,0,0,1.578-2.247,3.993,3.993,0,0,1,1.071-1.787,6.38,6.38,0,0,0,2.137-3.878A4.058,4.058,0,0,1,354.056,156.934Zm22.622-68.427.391-.213c.038-.461.093-.921.109-1.382a5.366,5.366,0,0,1,2.083-4.312,7.428,7.428,0,0,0,2.423-3.16,1.315,1.315,0,0,1,1.262-.952,1.477,1.477,0,0,0,1.023-.683,7.342,7.342,0,0,1,2.655-2.7c1.413-.934,1.3-2.242-.2-3.1-.614-.35-1.239-.682-1.862-1.016a4.186,4.186,0,0,1-2.392-3.28,31.507,31.507,0,0,0-.878-3.635,1.569,1.569,0,0,0-1.9-1.365c-.6.08-1.214,0-1.821.023-1.348.043-1.781.3-2.105,1.6-.562,2.247-1.045,4.514-1.508,6.784-.422,2.069-.41,4.246-1.66,6.1a1.155,1.155,0,0,0,.045.848c1.05,3.029,2.094,6.06,3.213,9.064A5.633,5.633,0,0,0,376.678,88.507ZM338.5,121.8a5.506,5.506,0,0,1-3.034,3.824.9.9,0,0,0-.411.431,10.708,10.708,0,0,1-1.826,3.527,13.474,13.474,0,0,0-1.734,3.053c-.121.234-.232.639-.117.8.954,1.378,1.9,2.769,2.979,4.051a2.1,2.1,0,0,0,2.416.564c.7-.243,1.423-.415,2.139-.6,2.4-.634,4.046-1.951,4.231-4.617a3.781,3.781,0,0,1,.168-.791c.336-1.143-.04-2.66,1.625-3.111.051-.014.086-.1.122-.158,1.037-1.653,2.107-3.287,3.1-4.968.486-.828,1.028-1.4,2.069-1.28a8.911,8.911,0,0,0,1.013.006c-.575-1.193-1.331-1.71-2.551-1.251-.312.117-.668.115-.982.229a1.24,1.24,0,0,0-.506.4c-.618.777-1.158,1.626-1.84,2.34-.595.623-1.145.457-1.456-.367a16.537,16.537,0,0,1-.46-1.757C341.771,122.375,340.14,123.871,338.5,121.8ZM299,80.188l-.352-.408a3.754,3.754,0,0,0-.866.438,22.535,22.535,0,0,0-2.638,2.507A3.963,3.963,0,0,1,292.07,84.4c-.556.019-.743.312-.708.865a2.391,2.391,0,0,0,2.151,2.53c1.816.385,3.628.839,5.466,1.067a3.342,3.342,0,0,1,2.895,2.569l.493,1.379c.59-1,1.022-1.8,1.524-2.548a3.733,3.733,0,0,1,1.117-1.272c1.439-.777,2.946-1.427,4.424-2.132a.9.9,0,0,0,.4-.269,2.373,2.373,0,0,1,2.3-.979c1.177-.023,2.355-.006,3.533-.006-.105-1.7-1.026-2.4-2.579-2.088a1.95,1.95,0,0,1-1.362-.144A2.828,2.828,0,0,0,308,83.69c-1.538,1.371-3.25,1.434-5.083,1.354a3.182,3.182,0,0,0-.607.03,1.68,1.68,0,0,1-1.787-.853,1.3,1.3,0,0,0-1.017-.514c-.674.089-1.325.241-1.682-.484a2.028,2.028,0,0,1,.169-2.376A4.45,4.45,0,0,1,299,80.188Zm63.173,1.351a6.352,6.352,0,0,0,.334.984,10.348,10.348,0,0,1,1.153,4.053,9.4,9.4,0,0,0,.917,2.75q.957,2.27,2.043,4.484a1.221,1.221,0,0,0,.829.62,4.445,4.445,0,0,0,1.329-.332c-.095-.692-.16-1.262-.252-1.827a21.11,21.11,0,0,1,.462-9.2,27.508,27.508,0,0,0,.535-3.563Zm7.766,12.274a1.318,1.318,0,0,0,.226.054c2.431-.195,4.3-1.676,6.306-2.814a1.031,1.031,0,0,0-.119-1.589,3.381,3.381,0,0,1-2.041-2.344c-.877-2.55-1.78-5.092-2.682-7.634-.137-.386-.332-.751-.6-1.344a5.252,5.252,0,0,0-.3.787c-.39,2.62-.643,5.269-1.189,7.856C369.034,89.2,369.646,91.461,369.942,93.813Zm-7.861,13.43c-.406,1.7-.953,3.237.339,4.687a4.173,4.173,0,0,1,.619,1.374,2.468,2.468,0,0,1-.86,3.3c-.689.605-.575,2.462.239,2.854.834.4,1.734.666,2.628,1a5.641,5.641,0,0,0,.35-.533c1.833-3.652,1.483-7.518,1.078-11.382a.856.856,0,0,0-.544-.57C364.685,107.7,363.426,107.49,362.081,107.243Zm11.788-1.926c-.244.1-.5.177-.731.3-.93.477-1.834,1.01-2.789,1.426a3.24,3.24,0,0,1-1.2.018,3.132,3.132,0,0,1,.047-1.221,2.564,2.564,0,0,1,.963-.982c1.485-.907,3-1.76,4.6-2.683l-1.2-3.864-6.49,2.1c.239,2.984.463,5.78.693,8.652C370.316,108.616,371.986,106.75,373.869,105.317ZM366.759,95.7c-.05,1.148-.1,2.312-.159,3.624.509-.155.854-.261,1.2-.366,2.064-.621,4.106-1.339,6.2-1.838,2.4-.57,3.324-.023,4.1,2.069,1.919.045,3.268-.821,3.341-2.262-.673.88-1.363.652-2.088.2a11.488,11.488,0,0,0-1.745-.96c-.863-.348-1.2-.91-.713-1.727s.2-1.438-.282-2.266C373.762,94.579,370.309,95.156,366.759,95.7Zm-15.218,25.026-.109.3c.532.38,1.077.743,1.594,1.144,1.1.848,2.747,1.244,2.448,3.223a1.68,1.68,0,0,0,.691,1.286,3.929,3.929,0,0,0,1.507.306,3.731,3.731,0,0,0-.075-1.189,6.238,6.238,0,0,1,.185-5.011c.308-.728.71-1.33,1.743-1.177-.294-.314-.655-.648-.926-.587C356.237,119.546,353.891,120.145,351.541,120.724Zm8.252-.218-.356-.01a7.689,7.689,0,0,0,.043,2.367c.439,1.289.08,3.07,1.949,3.622.159.047.246.385.34.6a5.474,5.474,0,0,1,.668,3.891,3.315,3.315,0,0,0-.012.9l.314.025a3.318,3.318,0,0,0,.3-1.193,6.539,6.539,0,0,1,.9-3.966,7.151,7.151,0,0,0,.3-2.006c-.458.182-.616.238-.768.307-1.481.671-1.683.587-2.285-.961Q360.486,122.3,359.793,120.507Zm16.094-18.6.433-.011a21.982,21.982,0,0,0,.4-2.259c.035-.424-.025-1.107-.278-1.246a4.944,4.944,0,0,0-1.745-.218ZM360.335,118.21l-.166.054,2.306,6.009,1.055-.576Zm-1.92,7.249.507-.031q-.2-1.264-.409-2.529l-.46.073Z" transform="translate(-133.356 -55.469)"/>
            <path id="Path_785" data-name="Path 785" class="cls-3" d="M327.41,321a5.879,5.879,0,0,1,.92-.057c3.253.294,6.508.583,9.758.914,2.111.215,4.214.508,6.323.744,1.548.174,1.868-.023,1.957-1.523.177-2.963.233-5.934.39-8.9.105-2.005.251-4.011.458-6.008.392-3.794.857-7.581,1.253-11.375.083-.792.4-1,1.169-.919q5.994.641,12,1.2c.721.067.886.362.832,1.042-.246,3.131-.414,6.268-.685,9.4a1.6,1.6,0,0,0,1.114,1.876c2.6,1,4.944,2.618,7.756,3.1a5.215,5.215,0,0,1,1.22.634,9.417,9.417,0,0,0,1.722.771c.978.249,2.009.3,2.984.557a9.908,9.908,0,0,0,6.819-.264,6.212,6.212,0,0,1,5.73.343,8.389,8.389,0,0,0,2.417.694c.647.12.783.409.77,1.028a33.766,33.766,0,0,0,.054,6.445,32.7,32.7,0,0,0,2.151,6.283,2.526,2.526,0,0,1-.186,2.2,15.06,15.06,0,0,0-.983,3.87,29.391,29.391,0,0,0-.033,3.753c-.8-.43-1.528-.782-2.211-1.208a4.82,4.82,0,0,1-.964-.891,1.3,1.3,0,0,0-2.094-.123,8.309,8.309,0,0,1-1.163.588,5.013,5.013,0,0,0-.7.626,5,5,0,0,0,.642.67,16.7,16.7,0,0,1,1.74,1.192c.748.707.568,1.394-.278,1.972a17.535,17.535,0,0,0-2.507,1.965,6.545,6.545,0,0,1-4.632,2.363,5.188,5.188,0,0,0-1.091.217,1.134,1.134,0,0,0-.965,1.322,1.461,1.461,0,0,1-1.515,1.644c-.37.028-.75-.03-1.112.033-.28.048-.779.248-.77.335.132,1.22-1.629,2.058-.692,3.436.061.09-.115.418-.258.554a5.533,5.533,0,0,1-.824.586c-1.5.973-1.451,1-.8,2.6a16.494,16.494,0,0,1,.5,2.569c.288,1.274.624,2.536,1,4.044a17.518,17.518,0,0,1-2.526-.632c-1.834-.765-3.63-1.622-5.435-2.458a3.712,3.712,0,0,1-2.213-3.057c-.139-1.037-.172-2.094-.4-3.111a2.755,2.755,0,0,0-.867-1.683,5.9,5.9,0,0,1-2.1-2.639c-1.433-2.712-2.783-5.478-4.391-8.084-1.876-3.042-4.907-3.96-8.308-3.759a3.923,3.923,0,0,0-2.943,1.948,9.835,9.835,0,0,1-1.686,1.99,1.544,1.544,0,0,1-1.424.08,17.032,17.032,0,0,1-3.7-2.627,9.485,9.485,0,0,1-2.012-3.544,25.255,25.255,0,0,0-6.633-10.238c-.805-.8-1.75-1.459-2.631-2.183Z" transform="translate(-250.64 -199.59)"/>
            <path id="Path_786" data-name="Path 786" class="cls-3" d="M169.8,227.365c-2.357-.451-4.495-.886-6.643-1.263-1.73-.3-3.467-.571-5.21-.78-.678-.081-.974-.383-.966-1.01.026-2.082-1.147-3.787-1.757-5.668a.2.2,0,0,0-.045-.09c-1.432-1.18-2.386-2.8-3.706-4.072a34.67,34.67,0,0,0-3.062-2.583c-.87-.664-1.837-1.2-2.729-1.835a2.793,2.793,0,0,1-1.021-1.008c-.7-1.711-1.241-3.49-1.966-5.191-.553-1.3-1.332-2.5-1.944-3.77-.5-1.033-.876-2.12-1.337-3.17a2.106,2.106,0,0,1,.439-2.175,1.952,1.952,0,0,0-.047-2.5c-.59-.873-1.077-1.816-1.609-2.729l.231-.285c.409.02.819.034,1.227.061.874.06,1.067-.266.794-1.061a4.716,4.716,0,0,1-.155-1.633c.026-.917-.263-1.229-1.1-1.069-1.323.254-1.94-.3-2.1-1.647a11.708,11.708,0,0,0-.7-3,7.83,7.83,0,0,1-.455-5.328,14.875,14.875,0,0,0,.313-5.7,3.222,3.222,0,0,1,.65-2.338,23,23,0,0,0,3.139-7.254l16.981,5.2c-.639,2.444-1.248,4.789-1.867,7.131-.906,3.427-1.842,6.847-2.7,10.286a2.093,2.093,0,0,0,.256,1.468c6.078,9.54,12.227,19.035,18.252,28.608a22.024,22.024,0,0,1,1.931,4.974,2.223,2.223,0,0,1-.333,1.5A14.987,14.987,0,0,1,171,221.79a4.943,4.943,0,0,0-.917,3.034C170.019,225.723,169.885,226.616,169.8,227.365Z" transform="translate(-134.75 -118.822)"/>
            <path id="Path_787" data-name="Path 787" class="cls-3" d="M283.041,81.224a9.574,9.574,0,0,0,1.875.617c4.927.569,9.857,1.125,14.793,1.606,2.452.239,4.92.322,7.381.454.636.034.868.238.8.935-.74,7.39-1.445,14.785-2.165,22.177-.042.432-.128.859-.213,1.417-1.916-.24-3.779-.472-5.642-.709q-12.108-1.538-24.214-3.089a.928.928,0,0,0-1.2.877c-.088.509-.32.822-.887.656a9.747,9.747,0,0,0-5.475.287c-.615.172-.978.026-1.174-.571-.495-1.507-1.011-3.007-1.47-4.524a2.238,2.238,0,0,1,.07-1c.354-1.855-.331-2.625-2.2-2.456-.2.018-.393.025-.746.047a32.145,32.145,0,0,1,1.022-4.444c.7-1.835-.2-3.027-1.251-4.256a1.1,1.1,0,0,0-.223-.206c-2.943-1.965-3.2-4.954-2.971-8.059a42.565,42.565,0,0,1,.751-4.3c.943.219,1.785.408,2.623.611,4.3,1.043,8.582,2.152,12.9,3.109,2.237.5,4.531.735,6.8,1.054.264.037.561-.163.843-.254Z" transform="translate(-209.366 -68.292)"/>
            <path id="Path_788" data-name="Path 788" class="cls-3" d="M292.7,313.233l5.459-33.3,28.757,2.848c-.1.714-.218,1.361-.283,2.012-.59,5.873-1.2,11.744-1.738,17.623-.2,2.183-.107,2.192.171,2.644a3.456,3.456,0,0,0-.435.946c-.128,2.022-.247,4.045-.3,6.069-.023.834-.392,1.022-1.134.942q-5.31-.574-10.623-1.111c-1.88-.193-3.76-.389-5.644-.542-.339-.028-.87.034-1.01.25-.537.828-1.23.606-1.967.492-2.167-.335-4.341-.627-6.51-.955-.737-.112-1.11.126-1.278.893-.348,1.585-.386,1.579-1.97,1.4C293.735,313.387,293.282,313.314,292.7,313.233Z" transform="translate(-229.684 -191.167)"/>
            <path id="Path_789" data-name="Path 789" class="cls-3" d="M594.35,333.721c.739,2.07.74,2.1,2.883,2.028q3.85-.126,7.695-.359c.334-.02.909-.337.924-.548.052-.744-.6-.554-1.032-.54-2.567.079-5.135.147-7.7.287-.959.052-1.462-.153-1.6-1.226-.191-1.5-.665-2.97-.85-4.473-.146-1.188-.008-2.408-.052-3.612a4.506,4.506,0,0,0-.289-2.242,16.056,16.056,0,0,1-2.105-5.637l-2.257-8.9,10.815-1.014c-.512,1.826.813,2.478,1.732,3.345,2.407,2.272,4.893,4.464,7.245,6.792a14.2,14.2,0,0,1,2.21,3.094,10.041,10.041,0,0,0,2.646,3.391,1.221,1.221,0,0,1,.308,1.1,21.748,21.748,0,0,0-1.035,7.674c-.714-.06-1.367-.127-2.021-.169-.9-.058-1.643.075-1.562,1.259a3.025,3.025,0,0,1-.169.756c-.805-.17-1.547-.344-2.3-.475a2.666,2.666,0,0,0-1.093-.034c-.223.059-.376.385-.561.592.2.176.383.46.613.508.949.2,1.917.3,2.871.48,1.453.27,1.581.192,1.759-1.235.021-.167.042-.334.063-.5,2.517-.777,4.3,1.133,3.62,3.317-.37,1.182.295,1.864.77,2.757,1.409,2.65,2.691,5.368,4.023,8.059,1.287,2.6,2.619,5.182,3.833,7.816a6.354,6.354,0,0,1,.356,2.3,15.242,15.242,0,0,0-.046,2.5c.479,2.115-.347,3.923-1.177,5.717a2.6,2.6,0,0,1-1.375,1.037c-.684.273-1.164-.008-1.44-.8a8.96,8.96,0,0,0-1.248-2.417,4.657,4.657,0,0,0-1.749-1.411c-.8-.357-1.4-.725-1.542-1.662a1.737,1.737,0,0,0-.522-.953c-.652-.586-1.373-1.073-1.375-2.106,0-.216-.365-.462-.6-.641a4.5,4.5,0,0,1-1.952-4.481,1.247,1.247,0,0,0-.868-1.506,1.478,1.478,0,0,1-.974-1.491c-.085-1.718-.2-3.438-.409-5.144a2.033,2.033,0,0,0-.781-1.056c-1.126-.953-2.326-1.818-3.436-2.788-1.731-1.514-4.246-2.26-6.436-.808-.539.357-1.223.925-1.723.823-1.125-.231-2.534-.529-3.184-1.325-1.394-1.707-3.393-1.662-5.125-2.368a1.824,1.824,0,0,0-.889.078c-.862.153-1.716.355-2.582.478-1.989.283-2.145.159-2.956-1.69-.3-.679-.106-.939.584-.979.978-.058,1.963-.072,2.931-.206,2.74-.382,5.472-.814,8.208-1.229C593.717,333.851,594.007,333.786,594.35,333.721Z" transform="translate(-404.316 -207.822)"/>
            <path id="Path_790" data-name="Path 790" class="cls-3" d="M232.1,267.587l23.559,4.652c-1.823,11.148-3.628,22.191-5.457,33.372-1.435-.183-2.761-.339-4.082-.525-1.5-.212-3.014-.4-4.5-.7a6.535,6.535,0,0,1-2.132-.8c-4.446-2.759-8.861-5.565-13.285-8.359-.257-.162-.509-.332-.752-.514-1.352-1.016-1.341-1.015-.939-2.593a4.78,4.78,0,0,0,.193-1.295,6.531,6.531,0,0,1,1.684-4.835,4.155,4.155,0,0,0,.6-5.286,3.047,3.047,0,0,1-.088-2.85,10.535,10.535,0,0,0,.386-3.679c.036-1.57.16-1.7,1.6-1.161,1.737.649,2.076.438,2.415-1.426C231.533,270.3,231.811,269.017,232.1,267.587Z" transform="translate(-188.319 -183.703)"/>
            <path id="Path_791" data-name="Path 791" class="cls-3" d="M203.937,216.188l-1.426-.478c-1.554-.523-2.484.127-2.54,1.793-.034,1.012-.024,2.026-.055,3.038a10.678,10.678,0,0,1-.2,1.182c-1.266-1.972-2.374-3.693-3.478-5.416L183.228,196c-.7-1.091-1.423-2.168-2.087-3.28a1.346,1.346,0,0,1-.12-.936q2.176-8.331,4.4-16.65a.593.593,0,0,1,.109-.215l25.228,5.6Z" transform="translate(-162.15 -127.682)"/>
            <path id="Path_792" data-name="Path 792" class="cls-3" d="M310.974,215.31c.494.049.857.079,1.218.123,2.569.316,5.137.627,7.7.954,1.876.238,3.749.5,5.624.748,1.157.151,2.313.326,3.475.42a5.786,5.786,0,0,0,1.3-.154,4.386,4.386,0,0,0,1,.444c3.071.464,6.142.927,9.222,1.322.811.1,1.095.383,1.041,1.2-.306,4.715-.571,9.432-.858,14.148-.168,2.759-.349,5.516-.537,8.488l-33.185-3.28Z" transform="translate(-238.315 -152.099)"/>
            <path id="Path_793" data-name="Path 793" class="cls-3" d="M324.917,154.334c-.789,7.845-1.565,15.558-2.367,23.535l-31.289-4.174c.248-1.381.5-2.625.692-3.877.877-5.6,1.726-11.2,2.611-16.8.4-2.513.42-2.472,2.912-2.152q12.4,1.589,24.8,3.133C323.137,154.1,324,154.216,324.917,154.334Z" transform="translate(-228.816 -113.046)"/>
            <path id="Path_794" data-name="Path 794" class="cls-3" d="M177.358,132.971c-2.824-.689-5.533-1.243-8.179-2.017-6.6-1.931-13.179-3.961-19.765-5.952-.065-.019-.128-.043-.193-.06-2.466-.653-2.474-.653-2.3-3.181a18.76,18.76,0,0,1,.272-2.311,3.915,3.915,0,0,1,.54-1.286,27.46,27.46,0,0,0,2.017-3.1c1.715-3.813,3.321-7.674,4.94-11.529.3-.713.585-1.125,1.483-.81.915.321,2.1-.048,2.71,1.027a3.5,3.5,0,0,1,.53,1.37,2.8,2.8,0,0,0,2.671,2.939,3.351,3.351,0,0,0,.906.078,5.278,5.278,0,0,1,3.477.935c1.679,1.037,3.633.6,5.493.144a4.58,4.58,0,0,1,1.7-.074c1.523.216,3.04.492,4.551.784.778.15,1.54.384,2.309.58a21.651,21.651,0,0,1,3.11.832,3.078,3.078,0,0,1,1.488,1.393c.34.73-.488.935-.981,1.267a11.73,11.73,0,0,0-3.115,2.331c-.669.926-.72,2.308-1,3.5-.1.418,0,.879-.094,1.3-.739,3.461-1.5,6.917-2.257,10.375C177.587,131.93,177.494,132.352,177.358,132.971Z" transform="translate(-141.518 -83.972)"/>
            <path id="Path_795" data-name="Path 795" class="cls-3" d="M244.9,219.336l5.591-29.747c1.263.247,2.505.477,3.742.735,2.545.53,5.082,1.1,7.634,1.6.817.159,1.157.407.921,1.324-.284,1.107-.382,2.262-.564,3.395-.231,1.436-.158,1.523,1.309,1.72q3.863.52,7.724,1.064c.3.041.586.119,1.043.214l-3.972,24.315Z" transform="translate(-200.788 -136.55)"/>
            <path id="Path_796" data-name="Path 796" class="cls-3" d="M427.646,240.163c-.027.419-.08.838-.072,1.256,0,.248.236.575.142.727a1.855,1.855,0,0,0,.625,2.591,3.176,3.176,0,0,1,1.068,3.012c-.2,3.165-.179,6.344-.245,9.517-.007.329,0,.658,0,1.112-.415,0-.74,0-1.066,0-8.581-.028-17.163-.018-25.743-.106-2.789-.028-5.575-.316-8.52-.494.373-6.158.735-12.143,1.107-18.294.66.058,1.244.094,1.824.162a165.846,165.846,0,0,0,26.808.954c1.367-.062,2.728-.274,4.092-.416Z" transform="translate(-290.826 -166.714)"/>
            <path id="Path_797" data-name="Path 797" class="cls-3" d="M486.087,103.425c-1.519.766-2.906,1.384-4.2,2.154a5.488,5.488,0,0,0-1.786,1.658c-.646,1.006-1.036,2.173-1.612,3.229a3.7,3.7,0,0,1-.982.989,2.615,2.615,0,0,0-.913,2.037,3.765,3.765,0,0,1-.694,2.012,4.54,4.54,0,0,0-.931,4.874,14.029,14.029,0,0,1,.4,2.994c.26,1.939.783,2.517,2.71,2.812a2.152,2.152,0,0,1,1.623,1.263,15.791,15.791,0,0,0,2.241,2.268,10.805,10.805,0,0,1,.9,1.245l-.225.281-22.386.921c0-1.325,0-2.524,0-3.722-.011-2.361,0-4.721-.053-7.081a3.641,3.641,0,0,0-1.429-2.9,1.141,1.141,0,0,1-.313-.942,15.469,15.469,0,0,0,.108-5.527,33,33,0,0,1,.034-4.22,3.7,3.7,0,0,0-.4-1.662c-1.319-2.393-.948-4.978-.956-7.64.62,0,1.246.031,1.867-.006a13.806,13.806,0,0,1,7.077,1.279,8.042,8.042,0,0,0,4.538.73,10.139,10.139,0,0,1,5.509,1.054,10.6,10.6,0,0,0,7.144,1.141A2.434,2.434,0,0,1,486.087,103.425Z" transform="translate(-329.12 -81.438)"/>
            <path id="Path_798" data-name="Path 798" class="cls-3" d="M376.4,161.837c.6-6.007,1.183-11.871,1.75-17.558l29.895,1.233a11.907,11.907,0,0,1,1.482,1.927,6.362,6.362,0,0,1,.75,2.557c.117,4.112.278,8.234-.717,12.291a15.513,15.513,0,0,0-.205,2.506c-1.067-.288-2.024-.622-3.009-.787a4.977,4.977,0,0,0-2.289,0,2.351,2.351,0,0,1-2.273-.363,4.64,4.64,0,0,0-3.053-.807,135.116,135.116,0,0,1-21.221-.825C377.184,161.975,376.858,161.909,376.4,161.837Z" transform="translate(-280.288 -109.158)"/>
            <path id="Path_799" data-name="Path 799" class="cls-3" d="M237.35,74.518a1.61,1.61,0,0,1,.339-.03c2.328.549,2,.363,1.542,2.314a14.38,14.38,0,0,0,.394,8.849,7.017,7.017,0,0,0,1.3,1.85c.394.454.946.77,1.358,1.212.84.9,1.5,1.788.96,3.22a28.623,28.623,0,0,0-.983,4.233c-.216,1.021.195,1.545,1.229,1.606a5.962,5.962,0,0,0,.707-.029c1.1-.07,1.085-.011.989,1.1a6.735,6.735,0,0,0,.2,2.16c.292,1.178.67,2.337,1.07,3.484.639,1.831,1.164,2.134,3.037,1.669a8.671,8.671,0,0,1,4.391-.253c.288.076.58.139.955.228l-2.328,15.332c-2.175-.457-4.309-.9-6.442-1.355-5.911-1.248-11.819-2.512-17.736-3.731-.865-.178-1.178-.475-.966-1.4.809-3.516,1.585-7.04,2.3-10.575.214-1.047.182-2.143.3-3.211a1.962,1.962,0,0,1,1.1-1.562,36.462,36.462,0,0,0,3.224-2.215,1.837,1.837,0,0,0,.426-2.461c-1.734-1.922-1.069-4.074-.656-6.126.718-3.569,1.658-7.093,2.489-10.64C236.852,76.982,237.087,75.759,237.35,74.518Z" transform="translate(-190.155 -66.964)"/>
            <path id="Path_800" data-name="Path 800" class="cls-3" d="M382.848,209.369c0-1.394-.037-2.775.014-4.152.032-.864-.332-1.188-1.156-1.294-2.477-.318-4.946-.693-7.418-1.051-.467-.068-.942-.085-.863-.814.364-3.386.693-6.776,1.048-10.3,1.537.157,3,.356,4.461.449,5.964.376,11.927.9,17.91.451a3.6,3.6,0,0,1,2.48.621,3.611,3.611,0,0,0,3.168.546c1.7-.446,3.232.391,4.8.857a.513.513,0,0,1,.28.267c1.269,3.009,2.575,6,3.757,9.047a11.17,11.17,0,0,1,.31,2.6,4.913,4.913,0,0,0,1.488,3.239,1.887,1.887,0,0,1,.29.5C411.843,211.254,386.2,210.407,382.848,209.369Z" transform="translate(-278.482 -137.861)"/>
            <path id="Path_801" data-name="Path 801" class="cls-3" d="M183.606,59.241l3.654,1.019a9.453,9.453,0,0,0,1.359.628c3.959,1.132,7.927,2.237,11.89,3.354.381.108.752.248,1.054.348-.773,6.467-3.271,12.487-3.763,19.115-.94-.259-1.895-.523-2.85-.785-.736-.2-1.464-.444-2.21-.59-1.674-.327-3.352-.646-5.041-.884a5.048,5.048,0,0,0-1.939.113c-1.963.516-3.837.887-5.642-.569a4.585,4.585,0,0,0-2.1-.492c-.627-.093-1.288-.005-1.9-.147a1.647,1.647,0,0,1-1.53-1.865,3.248,3.248,0,0,0-3.121-3.223,12.943,12.943,0,0,1-1.386-.236c.122-1.349.219-2.57.354-3.787a2.04,2.04,0,0,1,.311-.718c.5-.878,1.13-1.731.255-2.748-.1-.118-.057-.376-.053-.569.029-1.738.067-3.475.1-5.213a7.061,7.061,0,0,1,.151-1.657c1.984,1.572,4.8,1.262,6.709,3.444-.825.532-1.594,1-2.322,1.517-.221.158-.519.607-.455.7a10,10,0,0,0,1.793,2.274c.5.4,1.633-.382,1.984-1.178a2.139,2.139,0,0,0,.229-.668,4.866,4.866,0,0,1,1.2-3.408,1.1,1.1,0,0,0,.163-.76c-.065-1.171-.164-2.34-.248-3.473Z" transform="translate(-155.561 -57.472)"/>
            <path id="Path_802" data-name="Path 802" class="cls-3" d="M381.177,113.23c.57-5.952,1.128-11.789,1.705-17.817,1.4.092,2.759.194,4.119.268,4.55.245,9.1.518,13.651.7,2.763.113,5.533.115,8.3.105.9,0,1.206.387,1.2,1.2-.006.473.043.949,0,1.417a9.333,9.333,0,0,0,.788,4.922,8.142,8.142,0,0,1,.578,4.759,11.38,11.38,0,0,0,.039,2.309c.018.335.114.664.164,1,.3,2.017-.119,2.568-2.107,2.514-6.749-.18-13.5-.363-20.246-.618-2.426-.091-4.844-.385-7.265-.594C381.832,113.375,381.572,113.3,381.177,113.23Z" transform="translate(-283.174 -79.617)"/>
            <path id="Path_803" data-name="Path 803" class="cls-3" d="M476.093,235.363c-.643-.809-1.292-1.615-1.926-2.432-.11-.142-.269-.39-.217-.483a.767.767,0,0,1,.511-.372c1.924-.117,3.849-.2,5.775-.291,2.259-.1,4.517-.249,6.777-.273,1.945-.021,3.892.1,5.823.163a17.052,17.052,0,0,0,.442,3.108,11.4,11.4,0,0,0,1.529,2.9,26.28,26.28,0,0,0,2.522,2.872,3.457,3.457,0,0,0,1.249.781,1,1,0,0,1,.7,1.477c-.816,2.472-.5,3.362,1.866,4.419a3.439,3.439,0,0,1,2.415,3.419,2.1,2.1,0,0,0,1.643,2.355c-.139,1.008-.059,1.924-1.252,2.446-.457.2-.646,1.243-.765,1.936-.217,1.26-.165,1.276-1.648,1.054.056-.416.109-.837.17-1.256.165-1.128-.06-1.428-1.2-1.4-3.881.1-7.762.223-11.643.343-2.967.092-5.935.177-8.9.3-.7.03-.979-.191-.989-.887-.043-3.1-.142-6.2-.151-9.3,0-1.448.126-2.9.236-4.344a2.464,2.464,0,0,0-.953-2.212c-.624-.535-1.394-1.04-.726-2.158.41-.685-.552-2.1-1.316-2.2Z" transform="translate(-339.253 -161.892)"/>
            <path id="Path_804" data-name="Path 804" class="cls-3" d="M422.964,307.776a1.153,1.153,0,0,1-.339-.063,7.468,7.468,0,0,0-7.1-.266,8.505,8.505,0,0,1-5.347.185c-.957-.2-1.934-.323-2.871-.59-.687-.2-1.311-.6-1.984-.857-1.033-.394-2.087-.733-3.126-1.112-.752-.274-1.505-.551-2.239-.87-1.082-.47-2.13-1.021-3.225-1.456a1.162,1.162,0,0,1-.842-1.377c.252-2.928.456-5.861.676-8.792.023-.3.015-.609.045-.911.095-.964-.3-1.373-1.3-1.463-4.138-.37-8.269-.812-12.4-1.234-.328-.034-.651-.121-1.012-.191.017-.722-.033-1.35.993-1.205,9.484,1.333,19.028.671,28.547.85q4.866.092,9.732.178c.479.008.912-.044,1,.664.344,2.678.943,5.338,1.078,8.024.164,3.263-.039,6.545-.1,9.818A2.769,2.769,0,0,1,422.964,307.776Z" transform="translate(-283.608 -195.772)"/>
            <path id="Path_805" data-name="Path 805" class="cls-3" d="M511.59,127.744c.061,1.791.7,2.2,2.991,1.85.259,2.285,1.946,2.888,3.892,3.221,1.629.279,3.238.681,4.867.958a1.922,1.922,0,0,1,1.55,1.279,18.354,18.354,0,0,1,.75,2.094,1.191,1.191,0,0,1-.214.773,8.315,8.315,0,0,0-.813,1.265,1.274,1.274,0,0,0,.2,1.065,1.067,1.067,0,0,0,.975.183,13.224,13.224,0,0,0,1.75-1.035,3.218,3.218,0,0,1-.168.734,9.358,9.358,0,0,0-.794,4.633c.022,1.311-.167,2.624-.158,3.936a3.606,3.606,0,0,0,.414,1.892c.714,1.07.42,2.147.278,3.23-.022.171-.438.4-.686.417-3.5.287-7,.64-10.5.731-.749.019-1.675-.8-2.252-1.471a4.611,4.611,0,0,1-1.368-4.142,2.627,2.627,0,0,0-1.27-2.948,6.259,6.259,0,0,1-2.215-2.4,3.052,3.052,0,0,0-2.067-1.176,1.925,1.925,0,0,1-1.791-1.935c-.206-1.429-.522-2.848-.624-4.284a3.146,3.146,0,0,1,.527-1.941,6.342,6.342,0,0,0,1.5-3.759c.012-.548.769-1.235,1.351-1.581a26.035,26.035,0,0,1,3.21-1.43A4.117,4.117,0,0,1,511.59,127.744Z" transform="translate(-357.623 -99.162)"/>
            <path id="Path_806" data-name="Path 806" class="cls-3" d="M485.63,184.346c.752,2.077,1.4,4.078,3.27,5.36a10.862,10.862,0,0,1,1.215,1.071,2.726,2.726,0,0,1-.264,4.413,6.467,6.467,0,0,0-1.509,1.174,2.583,2.583,0,0,0-.56,1.759,2.13,2.13,0,0,1-.354,1.68c-.447.742-.845,1.514-1.328,2.39-3.7-.834-7.566-.163-11.43-.1-2.371.038-4.742.163-7.109.306-.674.041-.923-.2-.959-.818-.208-3.683-2.1-6.773-3.516-10.036a8.853,8.853,0,0,1-.023-5.942c.05-.189.585-.341.9-.354,5.3-.23,10.6-.433,15.9-.648C481.815,184.52,483.764,184.428,485.63,184.346Z" transform="translate(-332.371 -133.38)"/>
            <path id="Path_807" data-name="Path 807" class="cls-3" d="M529.284,198.557l8.661-.667c2.336-.179,2.331-.176,3.388,1.943a1.766,1.766,0,0,1,.091,1.811,2.464,2.464,0,0,0-.155,1.285c.217,3.234.48,6.465.686,9.7.064,1-.021,2.013-.007,3.019a6.375,6.375,0,0,0,.151,2.389,4.825,4.825,0,0,1,0,3.533c-.413,1.451-.728,2.93-1.069,4.4a4.5,4.5,0,0,1-1.186,2.384,8.938,8.938,0,0,0-1.236,2.39,3.2,3.2,0,0,0-.95-.146,4.447,4.447,0,0,0-1.178.4,2.785,2.785,0,0,0-.509.365,2.352,2.352,0,0,1-.383-.652,20.085,20.085,0,0,1-.3-2,2.547,2.547,0,0,0-1.432-2.072c-.712-.387-1.436-.752-2.142-1.15a1.5,1.5,0,0,1-.782-2.037,5.868,5.868,0,0,0,.389-1.358,1.565,1.565,0,0,0-1.084-1.916,3.4,3.4,0,0,1-1.8-1.518,17.643,17.643,0,0,0-2.07-2.207,6.654,6.654,0,0,1-.595-7.458c.65-.935,1.281-1.842.765-3.073-.059-.141.117-.442.263-.593a5.152,5.152,0,0,1,.8-.616C530.057,203.02,530.54,201.314,529.284,198.557Z" transform="translate(-370.063 -141.525)"/>
            <path id="Path_808" data-name="Path 808" class="cls-3" d="M487.337,296.378l21.187-.718c0,.955-.282,1.926.082,2.412.344.459,1.367.41,2.37.65a70.03,70.03,0,0,1-3.537,7.458c-1.992,3.215-3.779,6.387-3.326,10.464-.393.027-.782.077-1.171.077-2.4,0-4.8-.015-7.2-.02-1.834,0-3.668,0-5.567,0,0-.969.265-1.94-.078-2.59-.313-.593-1.284-.839-2.14-1.341A51.241,51.241,0,0,0,487.337,296.378Z" transform="translate(-347.352 -200.674)"/>
            <path id="Path_809" data-name="Path 809" class="cls-3" d="M586.562,334.585c-2.005.38-3.936.837-5.893,1.092s-3.97.312-5.956.461c-1.769.133-2.354,1.16-1.588,2.773.271.571.535,1.145.793,1.7-1.172.8-1.283.749-1.72-.346a4.361,4.361,0,0,0-.826-1.013c-.319.306-.66.592-.948.924a2.547,2.547,0,0,1-.694.743c-.127-1.277-.242-2.555-.384-3.83a93.655,93.655,0,0,1,.03-16.8c.163-2.392.365-4.782.507-7.176.039-.654.27-.945.935-1.028q4.823-.6,9.637-1.278c.7-.1.863.247,1,.8.94,3.7,1.881,7.4,2.865,11.083a6.254,6.254,0,0,0,.86,1.9,4.285,4.285,0,0,1,.7,2.835,41.869,41.869,0,0,0,.356,5.414C586.285,333.361,586.429,333.882,586.562,334.585Z" transform="translate(-396.705 -209.822)"/>
            <path id="Path_810" data-name="Path 810" class="cls-3" d="M518.256,369.784c-.53,1.191-1.778,1.824-1.013,3.032.516.816,1.322,1.449,1.906,2.339-.607-.371-1.232-.717-1.816-1.122a9.9,9.9,0,0,0-1.169-.957,3.331,3.331,0,0,0-1.655-.348c-.154.014-.229.877-.346,1.373h-5.821c-.136-2.34-1.985-2.6-3.494-3.116a2.071,2.071,0,0,0-1.651.633c-.589.592-1.012.9-1.874.477a17.571,17.571,0,0,0-3.375-1.262,5.708,5.708,0,0,0-2.052.076,4.95,4.95,0,0,0-1.11.494,33.47,33.47,0,0,1,.044-4.567c.218-1.517.944-2.965,1.129-4.483a3.347,3.347,0,0,0-.91-2.282c-.877-.978-.848-2.2-1.163-3.3-.4-1.4-.389-2.917-.655-4.365-.14-.759.178-1.111.806-1.113,2.428-.007,4.857.049,7.286.093,1.788.032,3.576.115,5.364.105.75,0,1.048.163,1.1.993a5.768,5.768,0,0,0,.693,2.284,1.108,1.108,0,0,1-.153,1.507,10.093,10.093,0,0,0-2.452,6.391c-.044.862.317,1.242,1.188,1.214,2.4-.077,4.8-.108,7.192-.2a1.143,1.143,0,0,1,1.286.7,11.308,11.308,0,0,0,.763,1.312c.427.688.915,1.331-.348,1.746-.216.071-.393.848-.282,1.2.212.677.633,1.282,1.544,1.148A7.177,7.177,0,0,1,518.256,369.784Z" transform="translate(-350.896 -234.309)"/>
            <path id="Path_811" data-name="Path 811" class="cls-3" d="M677.026,121.607a18.435,18.435,0,0,1,.752,1.791c.287.957.47,1.945.749,2.905a12.25,12.25,0,0,0,1.139,3.416,11.952,11.952,0,0,1,1.969,8.361,11.167,11.167,0,0,0,.436,3.774,11.7,11.7,0,0,1,.309,4.946,22.806,22.806,0,0,1-4.3-.866c-.819-.325-1.421-1.31-2-2.087a1.846,1.846,0,0,0-2.3-.714c-5.581,1.446-11.194,2.768-16.8,4.13a2.86,2.86,0,0,1-.442.032,1.859,1.859,0,0,1,.314-2.37,17.666,17.666,0,0,0,1.2-1.5,3.308,3.308,0,0,0,.683-3.384c-.474-1.426-.1-1.784,1.387-2.056a47.545,47.545,0,0,0,5.419-1.249,3.693,3.693,0,0,0,2.7-3.669c-.191-2.644,1.258-4.522,2.191-6.673a5.864,5.864,0,0,1,3.467-3.295C674.956,122.7,675.956,122.123,677.026,121.607Z" transform="translate(-449.465 -95.452)"/>
            <path id="Path_812" data-name="Path 812" class="cls-3" d="M544.123,314.788c-.083,1.272-.161,2.373-.225,3.475-.244,4.212-.594,8.423-.685,12.638-.062,2.858.233,5.724.386,8.585.061,1.143.141,2.287.268,3.425a.785.785,0,0,1-.719.991c-1.2.258-2.4.532-3.74.833-.61-1.064-1.334-2.272-2-3.513a1.219,1.219,0,0,0-1.331-.773c-2.19.122-4.387.13-6.581.178-.4.009-.793,0-1.3,0a9.147,9.147,0,0,1,2.053-5.587c1.1-1.289,1.112-1.587.293-3.009a4.134,4.134,0,0,1-.459-1.629c-.111-1.135-.122-2.28-.182-3.42-.156-2.959,1.2-5.406,2.647-7.82.518-.865,1.059-1.719,1.638-2.544A1.456,1.456,0,0,1,535,316C537.965,315.572,540.94,315.2,544.123,314.788Z" transform="translate(-372.056 -212.238)"/>
            <path id="Path_813" data-name="Path 813" class="cls-3" d="M658.087,266.343c-.547.605-1.122,1.188-1.628,1.825a5.856,5.856,0,0,0-.554,1.095c.385.132.765.288,1.158.389a4.13,4.13,0,0,0,.707.032c1.192.088,1.414.337,1.348,1.5-.053.944-.492,1.321-1.537,1.3-.3-.006-.685-.186-.888-.059a2.2,2.2,0,0,0-.77.917,10.8,10.8,0,0,0-.458,1.526c-.111.386-.429.909-.286,1.12.18.266.733.354,1.133.378a10.21,10.21,0,0,0,1.547-.126l.131.367a11.518,11.518,0,0,1-2.236,1.111,4.332,4.332,0,0,0-3.354,3.151,8.375,8.375,0,0,1-.736,1.554,1.787,1.787,0,0,1-2.664.821c-1.739-.9-3.459-1.846-5.245-2.642a3.545,3.545,0,0,0-2.241-.277,6.368,6.368,0,0,1-4.76-.706,6.625,6.625,0,0,0-2.7-.583,20.109,20.109,0,0,0-7.917,1.925c-1.858.787-3.776.363-5.663.545a1.616,1.616,0,0,1,.843-1.969c.955-.5,1.858-1.1,2.815-1.6a7.483,7.483,0,0,0,2.481-1.989,5.331,5.331,0,0,1,2.58-1.663,2.371,2.371,0,0,0,1.915-1.943c.2-1.018.8-1.29,1.737-1.384,7.505-.759,14.829-2.521,22.181-4.113.94-.2,1.847-.559,2.769-.844Z" transform="translate(-427.806 -182.747)"/>
            <path id="Path_814" data-name="Path 814" class="cls-3" d="M650.452,194.647c.038-.295.09-.588.112-.884a13.137,13.137,0,0,0,.156-2.75c-.388-2.718-.922-5.416-1.357-8.128a1.063,1.063,0,0,1,.362-.788,6.579,6.579,0,0,1,1.089-.664c.1.089.171.124.185.175.438,1.607.452,1.667,2.058,1.281q8.373-2.011,16.723-4.114a1.113,1.113,0,0,1,1.3.366c1.819,2.022,1.858,2.016,1.323,4.8a2.38,2.38,0,0,0,.426,2.172,5.992,5.992,0,0,1,.766,1.307c.842,1.8.5,2.287-1.018,3.545-1.709,1.418-3.711,1.772-5.713,2.248-2.231.531-4.485.968-6.717,1.5-.934.221-1.846.486-2.093,1.691a3,3,0,0,1-.992,1.323c-1.2-2.286-1.3-2.333-3.439-1.64-1.521.494-1.514.488-2.508-.757a6.588,6.588,0,0,0-.722-.673l.025-.03Z" transform="translate(-445.3 -129.972)"/>
            <path id="Path_815" data-name="Path 815" class="cls-3" d="M590.9,147.781c.9,1.7,1.81,3.267,2.545,4.914a2.245,2.245,0,0,1-.228,1.71,14.733,14.733,0,0,0-2.139,6.473,1,1,0,0,1-.978,1.065c-1.339.163-2.681.3-4.023.444-1.876.2-3.751.419-5.63.594-1.228.114-2.463.165-3.689.243.327-1.822.566-3.44.917-5.033a5.3,5.3,0,0,0-.838-4.338,6.455,6.455,0,0,1-.974-6.137,7.871,7.871,0,0,0,.271-1.492,2.277,2.277,0,0,1,1.986-2.232c.982-.205,1.321-.738,1.1-1.659a1.751,1.751,0,0,1,.477-1.641,6.487,6.487,0,0,0,.862-1.859,7.284,7.284,0,0,0,.2-1.307c1.164.44,2.189.836,3.221,1.216a21.627,21.627,0,0,0,2.442.835c.576.136.814.3.9.951a10.678,10.678,0,0,0,.769,1.9,2.707,2.707,0,0,1,.274,1.457c-.45,1.516-1.014,3-1.588,4.475a1.256,1.256,0,0,0,.563,1.654,1.454,1.454,0,0,0,1.326-.03A25.868,25.868,0,0,0,590.9,147.781Z" transform="translate(-400.636 -105.075)"/>
            <path id="Path_816" data-name="Path 816" class="cls-3" d="M621.1,200.957a1.671,1.671,0,0,0-1.109,1.655,2.5,2.5,0,0,1-1.738,2.424,3.616,3.616,0,0,0-2.115,2.555,9,9,0,0,1-1.043,1.763c-.258.466-.437.975-.684,1.447-.326.622-.684,1.227-1.074,1.92-1.067-1.258-2.282-1.217-3.7-.942a5.282,5.282,0,0,1-4.783-.938,6.148,6.148,0,0,0-2.089-.745c-.575-3.628-1.188-7.252-1.7-10.889-.2-1.414-.187-2.859-.26-4.11,2.229-.423,4.16-.848,6.113-1.123a4.8,4.8,0,0,1,1.858.4,7.111,7.111,0,0,0,7.645-2.58,33.929,33.929,0,0,1,2.341-2.533,14.71,14.71,0,0,0,.477,1.756c.87,2.021.626,4.254,1.237,6.332a6.334,6.334,0,0,1-.107,2.3c-.068.645-.14,1.25.732,1.378l-.031-.028Z" transform="translate(-415.946 -136.351)"/>
            <path id="Path_817" data-name="Path 817" class="cls-3" d="M575.017,244.992c.618.172,1.322.168,1.722.515,1.711,1.485,3.7,1.305,5.677,1.054,1.725-.219,1.818-.194,2.658,1.307.9,1.6,1.921,3.134,2.919,4.745-.265.275-.671.67-1.047,1.093-.822.923-1.658,1.835-2.434,2.8a5.177,5.177,0,0,1-3.433,2.356c-6.453.866-12.893,1.827-19.325,2.833-1.782.279-3.52.841-5.282,1.256a9.937,9.937,0,0,1-1.174.116l.45-2.678c.211-.052.279-.092.337-.08,1.922.394,1.893.387,2.422-1.573a5.034,5.034,0,0,1,.8-1.356c.2-.305.622-.552.668-.866.289-1.962,1.914-1.879,3.192-1.918,2.033-.062,3.874-.37,5.372-1.869a.887.887,0,0,1,.748-.109c1.008.319,1.558-.224,1.931-1.012.432-.914.76-1.877,1.184-2.795.146-.316.414-.764.68-.806,1.4-.219,1.59-1.284,1.8-2.365C574.9,245.478,574.944,245.319,575.017,244.992Z" transform="translate(-388.436 -170.043)"/>
            <path id="Path_818" data-name="Path 818" class="cls-3" d="M545.39,293.574c.348-.9.626-1.618.9-2.338a12.1,12.1,0,0,0,1.249-4.823c-.035-.887.486-1.172,1.248-1.231a22.278,22.278,0,0,0,2.72-.231c2.465-.507,4.891-1.231,7.371-1.628,5.259-.841,10.542-1.535,15.817-2.278,3.14-.443,6.283-.864,9.425-1.292.19-.026.383-.025.661-.041-.168.856-.344,1.41-1.274,1.76a6.119,6.119,0,0,0-3.612,2.6,3.029,3.029,0,0,1-1.19.889c-1.165.679-2.349,1.325-3.525,1.984a2.141,2.141,0,0,0-1.237,2.045c.023.641-.213.927-.916,1.016-6.594.832-13.182,1.706-19.771,2.569q-3.512.46-7.022.921C546.012,293.529,545.783,293.54,545.39,293.574Z" transform="translate(-382.447 -191.032)"/>
            <path id="Path_819" data-name="Path 819" class="cls-3" d="M662.9,241.453a220.018,220.018,0,0,1-33.451,6.059l-.227-.259c1.314-1.4,2.635-2.789,3.94-4.194a.966.966,0,0,1,1.32-.212,2.835,2.835,0,0,0,1.74.237c1.5-.371,2.974-.875,4.44-1.377a5.005,5.005,0,0,0,3.231-4.08c.124-.56.165-1.14.316-1.691.226-.827.067-1.884,1.246-2.2.141-.038.212-.329.319-.5,1.123-1.8,2.225-3.611,3.4-5.378.168-.253.663-.335,1.025-.4.646-.121,1.313-.13,1.956-.263a2.11,2.11,0,0,1,1.881,1.573,3.457,3.457,0,0,0,2.264,3.275c.343.141.675.308,1.017.452,2.342,1,1.991.707,2.11,3.6.022.528.1,1.053.107,1.581a1.855,1.855,0,0,1-.146.705c-.156.392-.6.973-.49,1.11a3.955,3.955,0,0,0,1.357.895c.172.083.463-.035.683-.111C662.373,239.779,662.371,239.775,662.9,241.453Z" transform="translate(-433.124 -159.277)"/>
            <path id="Path_820" data-name="Path 820" class="cls-3" d="M580.016,203.721c.4,2.473.79,4.786,1.122,7.108.118.827.055,1.679.127,2.515a6.776,6.776,0,0,0,.315,1.962,9.832,9.832,0,0,1,.082,5.964.841.841,0,0,1-.5.533,2.79,2.79,0,0,0-1.859,1.981c-.181.473-.367.944-.544,1.418-.3.8-.493,1.64-1.733,1.234-.318-.1-.89.26-1.216.552a5.014,5.014,0,0,1-3.342,1.441c-1.167.026-2.33.2-3.707.329.169-.756.3-1.494.505-2.214a16.655,16.655,0,0,0,.726-2.31,10.584,10.584,0,0,0-.14-2.441,6.42,6.42,0,0,1-.284-1.571c.487-2.887-.2-5.712-.354-8.564-.092-1.753-.208-3.5-.3-5.258a8.223,8.223,0,0,1,.094-1.042,2.222,2.222,0,0,0,2.765-.963c.08-.124.359-.152.551-.167q3.419-.264,6.841-.506C579.528,203.7,579.894,203.721,580.016,203.721Z" transform="translate(-396.575 -145.088)"/>
            <path id="Path_821" data-name="Path 821" class="cls-3" d="M655.983,305.82a4.058,4.058,0,0,0-1.874,3.387,6.38,6.38,0,0,1-2.137,3.878,3.992,3.992,0,0,0-1.071,1.787,4.039,4.039,0,0,1-1.578,2.247c-1.006.808-1.942,1.7-3.008,2.649-1.087-.349-1.644-1.487-2.108-2.619a13.691,13.691,0,0,0-3.778-4.929c-2.308-2.077-4.585-4.187-6.876-6.283-1.149-1.051-1.006-1.739.441-2.3a23.151,23.151,0,0,1,7.108-1.867,4.584,4.584,0,0,1,2.818.528,6.016,6.016,0,0,0,5.141.745,2.108,2.108,0,0,1,1.38.07C652.241,303.935,654,304.842,655.983,305.82Z" transform="translate(-435.283 -204.355)"/>
            <path id="Path_822" data-name="Path 822" class="cls-3" d="M741.86,99.548a5.637,5.637,0,0,1-1.116-1.379c-1.119-3-2.163-6.035-3.213-9.064a1.155,1.155,0,0,1-.045-.848c1.251-1.852,1.239-4.029,1.66-6.1.463-2.27.947-4.537,1.508-6.784.325-1.3.758-1.555,2.105-1.6.607-.019,1.224.057,1.821-.023a1.57,1.57,0,0,1,1.9,1.365,31.613,31.613,0,0,1,.878,3.635,4.186,4.186,0,0,0,2.392,3.28c.623.334,1.248.666,1.862,1.016,1.5.853,1.609,2.161.2,3.1a7.344,7.344,0,0,0-2.655,2.7,1.476,1.476,0,0,1-1.023.683,1.315,1.315,0,0,0-1.262.952,7.428,7.428,0,0,1-2.423,3.16,5.366,5.366,0,0,0-2.083,4.312c-.016.461-.071.921-.109,1.382Z" transform="translate(-498.537 -66.51)"/>
            <path id="Path_823" data-name="Path 823" class="cls-3" d="M641.139,222.151c1.642,2.072,3.273.576,4.94.323a16.563,16.563,0,0,0,.46,1.757c.311.824.861.99,1.456.367.682-.715,1.222-1.563,1.84-2.34a1.241,1.241,0,0,1,.506-.4c.314-.114.67-.112.982-.229,1.22-.459,1.976.058,2.55,1.251a8.906,8.906,0,0,1-1.013-.006c-1.041-.125-1.582.452-2.069,1.28-.989,1.681-2.058,3.315-3.1,4.968-.036.057-.07.144-.122.158-1.666.451-1.29,1.969-1.625,3.111a3.773,3.773,0,0,0-.168.791c-.185,2.666-1.83,3.984-4.231,4.617-.716.189-1.44.361-2.139.6a2.1,2.1,0,0,1-2.416-.564c-1.076-1.282-2.024-2.673-2.979-4.051-.115-.166,0-.571.117-.8a13.483,13.483,0,0,1,1.735-3.053,10.708,10.708,0,0,0,1.826-3.527.9.9,0,0,1,.411-.431A5.507,5.507,0,0,0,641.139,222.151Z" transform="translate(-435.997 -155.821)"/>
            <path id="Path_824" data-name="Path 824" class="cls-3" d="M540.543,117.354a4.452,4.452,0,0,0-1.012.659,2.028,2.028,0,0,0-.169,2.376c.357.724,1.008.573,1.682.484a1.3,1.3,0,0,1,1.017.514,1.68,1.68,0,0,0,1.788.853,3.184,3.184,0,0,1,.607-.03c1.833.079,3.545.017,5.083-1.354a2.828,2.828,0,0,1,3.727-.316,1.95,1.95,0,0,0,1.362.144c1.552-.316,2.474.389,2.579,2.088-1.178,0-2.356-.017-3.533.006a2.373,2.373,0,0,0-2.3.979.9.9,0,0,1-.4.269c-1.478.705-2.985,1.355-4.424,2.132a3.731,3.731,0,0,0-1.117,1.272c-.5.753-.934,1.552-1.524,2.548l-.493-1.379a3.342,3.342,0,0,0-2.895-2.569c-1.838-.228-3.65-.681-5.466-1.067a2.391,2.391,0,0,1-2.151-2.53c-.035-.553.152-.846.708-.865a3.963,3.963,0,0,0,3.076-1.677,22.543,22.543,0,0,1,2.638-2.507,3.755,3.755,0,0,1,.866-.438Z" transform="translate(-374.896 -92.634)"/>
            <path id="Path_825" data-name="Path 825" class="cls-3" d="M711.975,118.294l7.35-2.028a27.512,27.512,0,0,1-.535,3.563,21.11,21.11,0,0,0-.462,9.2c.092.565.157,1.135.252,1.827a4.444,4.444,0,0,1-1.329.332,1.221,1.221,0,0,1-.829-.62q-1.082-2.212-2.043-4.484a9.4,9.4,0,0,1-.917-2.75,10.346,10.346,0,0,0-1.153-4.053A6.349,6.349,0,0,1,711.975,118.294Z" transform="translate(-483.155 -92.223)"/>
            <path id="Path_826" data-name="Path 826" class="cls-3" d="M730.7,128.474c-.3-2.352-.908-4.615-.4-7.028.546-2.587.8-5.236,1.189-7.856a5.246,5.246,0,0,1,.3-.787c.265.593.46.958.6,1.344.9,2.541,1.806,5.083,2.682,7.634a3.381,3.381,0,0,0,2.041,2.344,1.031,1.031,0,0,1,.119,1.589c-2.009,1.138-3.874,2.619-6.306,2.814A1.314,1.314,0,0,1,730.7,128.474Z" transform="translate(-494.118 -90.13)"/>
            <path id="Path_827" data-name="Path 827" class="cls-3" d="M711.017,186.39c1.345.248,2.6.456,3.849.73a.856.856,0,0,1,.544.57c.4,3.864.754,7.73-1.078,11.382a5.623,5.623,0,0,1-.35.533c-.894-.333-1.795-.6-2.628-1-.814-.392-.928-2.249-.239-2.854a2.468,2.468,0,0,0,.86-3.3,4.176,4.176,0,0,0-.619-1.374C710.064,189.627,710.611,188.086,711.017,186.39Z" transform="translate(-482.292 -134.616)"/>
            <path id="Path_828" data-name="Path 828" class="cls-3" d="M731.135,170.8c-1.883,1.433-3.553,3.3-6.115,3.741-.23-2.873-.454-5.668-.693-8.652l6.49-2.1,1.2,3.864c-1.592.923-3.11,1.776-4.6,2.683a2.562,2.562,0,0,0-.963.982,3.128,3.128,0,0,0-.047,1.221,3.24,3.24,0,0,0,1.2-.018c.955-.416,1.859-.949,2.789-1.426C730.637,170.98,730.89,170.9,731.135,170.8Z" transform="translate(-490.621 -120.955)"/>
            <path id="Path_829" data-name="Path 829" class="cls-3" d="M723.323,151.808c3.55-.543,7-1.12,9.853-3.526.486.828.776,1.439.281,2.266s-.15,1.379.713,1.727a11.487,11.487,0,0,1,1.745.96c.725.453,1.415.681,2.088-.2-.073,1.441-1.422,2.307-3.341,2.262-.773-2.092-1.7-2.639-4.1-2.069-2.094.5-4.136,1.216-6.2,1.838-.346.1-.692.211-1.2.366C723.221,154.12,723.272,152.956,723.323,151.808Z" transform="translate(-489.919 -111.578)"/>
            <path id="Path_830" data-name="Path 830" class="cls-3" d="M684.916,217.859c2.351-.579,4.7-1.179,7.058-1.708.272-.061.632.273.926.587-1.033-.153-1.435.449-1.743,1.177a6.237,6.237,0,0,0-.185,5.011,3.737,3.737,0,0,1,.075,1.189,3.93,3.93,0,0,1-1.508-.306,1.68,1.68,0,0,1-.691-1.286c.3-1.979-1.352-2.374-2.448-3.223-.517-.4-1.062-.764-1.594-1.144Z" transform="translate(-466.731 -152.603)"/>
            <path id="Path_831" data-name="Path 831" class="cls-3" d="M705.288,219.915q.695,1.789,1.389,3.578c.6,1.548.8,1.632,2.286.961.152-.069.31-.125.768-.307a7.151,7.151,0,0,1-.3,2.006,6.538,6.538,0,0,0-.9,3.966,3.317,3.317,0,0,1-.3,1.193l-.314-.025a3.319,3.319,0,0,1,.012-.9,5.473,5.473,0,0,0-.668-3.891c-.095-.214-.181-.552-.34-.6-1.869-.552-1.51-2.333-1.949-3.622a7.69,7.69,0,0,1-.043-2.367Z" transform="translate(-478.85 -154.877)"/>
            <path id="Path_832" data-name="Path 832" class="cls-3" d="M744.836,167.183l-1.184-3.735a4.943,4.943,0,0,1,1.745.218c.253.14.313.823.278,1.246a22.007,22.007,0,0,1-.405,2.259Z" transform="translate(-502.305 -120.747)"/>
            <path id="Path_833" data-name="Path 833" class="cls-3" d="M707.066,214.124l3.2,5.487-1.055.576-2.306-6.009Z" transform="translate(-480.087 -151.382)"/>
            <path id="Path_834" data-name="Path 834" class="cls-3" d="M701.913,228.542l-.362-2.487.46-.073q.2,1.265.408,2.529Z" transform="translate(-476.853 -158.551)"/>
            <path id="Path_835" data-name="Path 835" class="cls-1" d="M652.04,218.838l-.029.041-.024.031Z" transform="translate(-446.889 -154.232)"/>
          </g>
        </g>
      </g>
    </g>
    <g id="Group_460" data-name="Group 460" class="cls-4" transform="translate(878.724 2339.88)">
      <path id="profile_pic" data-name="profile pic" class="cls-5" d="M526.993,1672h0c8.657,0,12.993,4.365,12.993,12.993h0c0,8.628-4.336,12.993-12.993,12.993h0c-8.637,0-12.993-4.365-12.993-12.993h0C514,1676.366,518.357,1672,526.993,1672Z" transform="translate(-502.184 -1660.185)"/>
      <path id="profile_pic-2" data-name="profile pic" class="cls-5" d="M532.872,1672h0c12.574,0,18.872,6.34,18.872,18.872h0c0,12.532-6.3,18.872-18.872,18.872h0c-12.544,0-18.872-6.34-18.872-18.872h0C514,1678.341,520.328,1672,532.872,1672Z" transform="translate(-508.255 -1666.256)"/>
      <path id="profile_pic-3" data-name="profile pic" class="cls-5" d="M538.625,1672h0c16.407,0,24.624,8.272,24.624,24.624h0c0,16.352-8.218,24.624-24.624,24.624h0c-16.368,0-24.624-8.272-24.624-24.624h0C514,1680.273,522.256,1672,538.625,1672Z" transform="translate(-514 -1672.001)"/>
      <path id="profile_pic-4" data-name="profile pic" class="cls-5" d="M520.991,1672h0c4.658,0,6.991,2.349,6.991,6.991h0c0,4.643-2.333,6.991-6.991,6.991h0c-4.647,0-6.991-2.349-6.991-6.991h0C514,1674.349,516.344,1672,520.991,1672Z" transform="translate(-496.113 -1654.114)"/>
    </g>
    <g id="Group_461" data-name="Group 461" class="cls-4" transform="translate(681.954 2396.613)">
      <path id="profile_pic-5" data-name="profile pic" class="cls-5" d="M526.993,1672h0c8.657,0,12.993,4.365,12.993,12.993h0c0,8.628-4.336,12.993-12.993,12.993h0c-8.637,0-12.993-4.365-12.993-12.993h0C514,1676.366,518.357,1672,526.993,1672Z" transform="translate(-502.184 -1660.185)"/>
      <path id="profile_pic-6" data-name="profile pic" class="cls-5" d="M532.872,1672h0c12.574,0,18.872,6.34,18.872,18.872h0c0,12.532-6.3,18.872-18.872,18.872h0c-12.544,0-18.872-6.34-18.872-18.872h0C514,1678.341,520.328,1672,532.872,1672Z" transform="translate(-508.255 -1666.256)"/>
      <path id="profile_pic-7" data-name="profile pic" class="cls-5" d="M538.625,1672h0c16.407,0,24.624,8.272,24.624,24.624h0c0,16.352-8.218,24.624-24.624,24.624h0c-16.368,0-24.624-8.272-24.624-24.624h0C514,1680.273,522.256,1672,538.625,1672Z" transform="translate(-514 -1672.001)"/>
      <path id="profile_pic-8" data-name="profile pic" class="cls-5" d="M520.991,1672h0c4.658,0,6.991,2.349,6.991,6.991h0c0,4.643-2.333,6.991-6.991,6.991h0c-4.647,0-6.991-2.349-6.991-6.991h0C514,1674.349,516.344,1672,520.991,1672Z" transform="translate(-496.113 -1654.114)"/>
    </g>
    <g id="Group_462" data-name="Group 462" class="cls-4" transform="translate(693.444 2321.927)">
      <path id="profile_pic-9" data-name="profile pic" class="cls-5" d="M521.033,1672h0c4.686,0,7.032,2.363,7.032,7.032h0c0,4.67-2.347,7.032-7.032,7.032h0c-4.675,0-7.032-2.362-7.032-7.032h0C514,1674.364,516.358,1672,521.033,1672Z" transform="translate(-507.605 -1665.606)"/>
      <path id="profile_pic-10" data-name="profile pic" class="cls-5" d="M524.214,1672h0c6.805,0,10.214,3.431,10.214,10.214h0c0,6.783-3.409,10.214-10.214,10.214h0c-6.79,0-10.214-3.431-10.214-10.214h0C514,1675.432,517.425,1672,524.214,1672Z" transform="translate(-510.891 -1668.891)"/>
      <path id="profile_pic-11" data-name="profile pic" class="cls-5" d="M527.328,1672h0c8.88,0,13.328,4.477,13.328,13.328h0c0,8.85-4.448,13.328-13.328,13.328h0c-8.859,0-13.328-4.477-13.328-13.328h0C514,1676.478,518.469,1672,527.328,1672Z" transform="translate(-514 -1672.001)"/>
      <path id="profile_pic-12" data-name="profile pic" class="cls-5" d="M517.784,1672h0c2.521,0,3.784,1.271,3.784,3.784h0c0,2.513-1.263,3.784-3.784,3.784h0c-2.515,0-3.784-1.271-3.784-3.784h0C514,1673.272,515.269,1672,517.784,1672Z" transform="translate(-504.319 -1662.32)"/>
    </g>
    <g id="Group_463" data-name="Group 463" class="cls-6" transform="translate(763.103 2409.983)">
      <path id="profile_pic-13" data-name="profile pic" class="cls-5" d="M536.16,1672h0c14.765,0,22.16,7.444,22.16,22.16h0c0,14.716-7.4,22.16-22.16,22.16h0c-14.73,0-22.16-7.445-22.16-22.16h0C514,1679.446,521.43,1672,536.16,1672Z" transform="translate(-493.848 -1651.849)"/>
      <path id="profile_pic-14" data-name="profile pic" class="cls-5" d="M546.186,1672h0c21.445,0,32.186,10.813,32.186,32.186h0c0,21.374-10.741,32.186-32.186,32.186h0c-21.395,0-32.186-10.812-32.186-32.186h0C514,1682.814,524.791,1672,546.186,1672Z" transform="translate(-504.202 -1662.203)"/>
      <path id="profile_pic-15" data-name="profile pic" class="cls-5" d="M556,1672h0c27.982,0,42,14.108,42,42h0c0,27.889-14.015,42-42,42h0c-27.917,0-42-14.109-42-42h0C514,1686.11,528.081,1672,556,1672Z" transform="translate(-514 -1672.001)"/>
      <path id="profile_pic-16" data-name="profile pic" class="cls-5" d="M525.924,1672h0c7.945,0,11.924,4.005,11.924,11.924h0c0,7.918-3.979,11.923-11.924,11.923h0c-7.926,0-11.924-4.006-11.924-11.923h0C514,1676.007,518,1672,525.924,1672Z" transform="translate(-483.493 -1641.494)"/>
    </g>
  </g>
</svg>
