<svg xmlns="http://www.w3.org/2000/svg" width="530.275" height="66.66" viewBox="0 0 530.275 66.66">
    <path id="logo_full" fill="#f0726a" d="M764.492 514.771v-23.063c0-10.177-5.176-15.326-15.369-15.326s-15.368 5.148-15.368 15.326v1.934c-.1 17.4-9.04 26.188-26.559 26.188-17.615 0-26.558-8.9-26.558-26.485s8.943-26.485 26.558-26.485a37.544 37.544 0 0 1 10.723 1.4v.007c.141.043.283.086.429.138 3.19 1.141 4.245 3.282 3.094 6.457s-3.334 4.157-6.524 3.016l-.073-.029v.006a22.516 22.516 0 0 0-7.644-1.176c-11.084 0-16.711 5.6-16.711 16.665a20.305 20.305 0 0 0 1.919 9.329c.872 4.272-1.358 5.009-1.927 6.286-.683 1.531 1.8 2.537 6.325.792a13.617 13.617 0 0 0 2.238-1.113 21.883 21.883 0 0 0 8.156 1.37c11.084 0 16.711-5.6 16.711-16.665v-1.19c0-16.8 8.541-25.3 25.365-25.3s25.365 8.5 25.365 25.3v22.617c0 3.36-1.708 5.06-5.073 5.06s-5.077-1.7-5.077-5.059zm-107.129 0v-42.853c0-3.359 1.708-5.058 5.072-5.058s5.073 1.7 5.073 5.058v42.852c0 3.36-1.708 5.06-5.073 5.06s-5.073-1.7-5.073-5.06zm-21.485 5.06c-8.907 0-13.428-4.5-13.428-13.392v-30.057h-3.922c-3.143 0-4.732-1.6-4.732-4.762s1.59-4.761 4.732-4.761h3.922v-8.63c0-3.359 1.708-5.059 5.072-5.059s5.073 1.7 5.073 5.059v8.63h6.01c3.143 0 4.732 1.6 4.732 4.761s-1.59 4.762-4.732 4.762h-6.01v30.068c0 2.351 1.127 3.634 3.283 3.827v.03h2.685c3.167 0 4.775 1.6 4.775 4.761s-1.608 4.762-4.775 4.762zm-83.256-25.3v-22.613c0-3.359 1.708-5.058 5.072-5.058s5.073 1.7 5.073 5.058v23.212c0 10.078 5.125 15.177 15.219 15.177s15.219-5.1 15.219-15.177v-23.212c0-3.359 1.708-5.058 5.073-5.058s5.073 1.7 5.073 5.058v22.617c0 16.8-8.541 25.3-25.365 25.3s-25.366-8.503-25.366-25.3zM528.15 514.77v-55.946c0-3.36 1.708-5.059 5.073-5.059s5.072 1.7 5.072 5.059v55.946c0 3.36-1.707 5.06-5.072 5.06s-5.073-1.7-5.073-5.06zm-60.279-21.425c0-17.588 8.943-26.485 26.558-26.485s26.559 8.9 26.559 26.485c0 3.158-1.62 4.761-4.821 4.761H478.4c1.425 8.106 7.556 12.2 17.184 12.2q8.755 0 13.053-4.5l.017.017c2.579-2.461 5.142-2.432 7.694.006s2.582 4.89 0 7.357c-.208.2-.416.375-.624.542q-6.932 6.08-20.14 6.1c-18.384.002-27.712-8.896-27.712-26.483zm10.532-4.762h32.053c-1.425-8.106-6.8-12.2-16.026-12.2s-14.601 4.093-16.03 12.2zm-46.518 28.568c-.023-.053-.048-.1-.07-.158l-18.761-43.456c-1.284-3.1-.349-5.32 2.771-6.595s5.354-.35 6.637 2.755l14.225 32.949 14.226-32.946c1.284-3.1 3.516-4.027 6.636-2.755s4.056 3.49 2.772 6.595l-18.76 43.456c-.023.054-.048.105-.071.158 0 0-.618 2.679-4.8 2.679s-4.805-2.682-4.805-2.682zm-40.406-2.381v-42.852c0-3.359 1.708-5.058 5.072-5.058s5.073 1.7 5.073 5.058v42.852c0 3.36-1.708 5.06-5.073 5.06s-5.072-1.7-5.072-5.06zm-45.657 0v-42.852c0-3.359 1.708-5.058 5.072-5.058s5.073 1.7 5.073 5.058v.432c3.255-3.65 8.413-5.491 16.413-5.491a44.41 44.41 0 0 1 5 .276 7.083 7.083 0 0 1 1.583.214c.088.013.18.023.267.037l-.007.028c3.083.84 4.187 2.812 3.373 5.885-.822 3.1-2.787 4.273-5.938 3.447-.048-.012-.09-.027-.136-.041a25.488 25.488 0 0 0-4.145-.323c-10.886 0-16.413 5.7-16.413 16.962v21.426c0 3.36-1.708 5.06-5.073 5.06s-5.069-1.7-5.069-5.06zm-20.889 0v-23.211c0-10.079-5.125-15.177-15.218-15.177s-15.22 5.1-15.22 15.177v23.258c-.017 3.328-1.724 5.013-5.072 5.013-3.364 0-5.072-1.7-5.072-5.06v-56.541c0-3.359 1.708-5.059 5.072-5.059s5.073 1.7 5.073 5.059V471.7c3.077-3.221 7.875-4.841 15.22-4.841 16.824 0 25.365 8.5 25.365 25.3v22.611c0 3.36-1.708 5.06-5.073 5.06s-5.075-1.7-5.075-5.06zm-58.488 5.06c-8.906 0-13.428-4.5-13.428-13.392v-30.056H249.1c-3.143 0-4.733-1.6-4.733-4.762s1.591-4.761 4.733-4.761h3.921v-8.63c0-3.359 1.707-5.059 5.073-5.059s5.073 1.7 5.073 5.059v8.63h6.01c3.143 0 4.733 1.6 4.733 4.761s-1.591 4.762-4.733 4.762h-6.01v30.068c0 2.351 1.126 3.634 3.282 3.827v.03h2.686c3.167 0 4.775 1.6 4.775 4.761s-1.608 4.762-4.775 4.762zm442.541-26.485c0-2.567 1.278-3.869 3.88-3.869s3.879 1.3 3.879 3.869-1.277 3.868-3.879 3.868-3.879-1.302-3.879-3.868zm-11.339 0c0-2.567 1.278-3.869 3.88-3.869s3.878 1.3 3.878 3.869-1.278 3.868-3.878 3.868-3.879-1.302-3.879-3.868z" data-name="logo full" transform="translate(-244.363 -453.17)"/>
</svg>
